%TF.GenerationSoftware,KiCad,Pcbnew,8.0.7*%
%TF.CreationDate,2024-12-29T17:24:51-05:00*%
%TF.ProjectId,HE75,48453735-2e6b-4696-9361-645f70636258,2.0.0*%
%TF.SameCoordinates,Original*%
%TF.FileFunction,Other,Comment*%
%FSLAX46Y46*%
G04 Gerber Fmt 4.6, Leading zero omitted, Abs format (unit mm)*
G04 Created by KiCad (PCBNEW 8.0.7) date 2024-12-29 17:24:51*
%MOMM*%
%LPD*%
G01*
G04 APERTURE LIST*
%ADD10C,0.100000*%
%ADD11C,0.150000*%
G04 APERTURE END LIST*
D10*
%TO.C,U82*%
X131038630Y112568916D02*
X131546630Y112060916D01*
X131038630Y112060916D02*
X131546630Y112568916D01*
%TO.C,U81*%
X131038630Y127718916D02*
X131546630Y127210916D01*
X131038630Y127210916D02*
X131546630Y127718916D01*
%TO.C,U80*%
X131038630Y142868916D02*
X131546630Y142360916D01*
X131038630Y142360916D02*
X131546630Y142868916D01*
%TO.C,U79*%
X131038630Y158018916D02*
X131546630Y157510916D01*
X131038630Y157510916D02*
X131546630Y158018916D01*
%TO.C,U78*%
X115888630Y21668916D02*
X116396630Y21160916D01*
X115888630Y21160916D02*
X116396630Y21668916D01*
%TO.C,U77*%
X115888630Y36818916D02*
X116396630Y36310916D01*
X115888630Y36310916D02*
X116396630Y36818916D01*
%TO.C,U76*%
X115888630Y51968916D02*
X116396630Y51460916D01*
X115888630Y51460916D02*
X116396630Y51968916D01*
%TO.C,U75*%
X115888630Y67118916D02*
X116396630Y66610916D01*
X115888630Y66610916D02*
X116396630Y67118916D01*
%TO.C,U74*%
X115888630Y82268916D02*
X116396630Y81760916D01*
X115888630Y81760916D02*
X116396630Y82268916D01*
%TO.C,U73*%
X115888630Y97418916D02*
X116396630Y96910916D01*
X115888630Y96910916D02*
X116396630Y97418916D01*
%TO.C,U72*%
X115888630Y112568916D02*
X116396630Y112060916D01*
X115888630Y112060916D02*
X116396630Y112568916D01*
%TO.C,U71*%
X115888630Y127718916D02*
X116396630Y127210916D01*
X115888630Y127210916D02*
X116396630Y127718916D01*
%TO.C,U70*%
X115888630Y142868916D02*
X116396630Y142360916D01*
X115888630Y142360916D02*
X116396630Y142868916D01*
%TO.C,U69*%
X115888630Y158018916D02*
X116396630Y157510916D01*
X115888630Y157510916D02*
X116396630Y158018916D01*
%TO.C,U68*%
X100738630Y21668916D02*
X101246630Y21160916D01*
X100738630Y21160916D02*
X101246630Y21668916D01*
%TO.C,U67*%
X100738630Y36818916D02*
X101246630Y36310916D01*
X100738630Y36310916D02*
X101246630Y36818916D01*
%TO.C,U66*%
X100738630Y51968916D02*
X101246630Y51460916D01*
X100738630Y51460916D02*
X101246630Y51968916D01*
%TO.C,U65*%
X100738630Y67118916D02*
X101246630Y66610916D01*
X100738630Y66610916D02*
X101246630Y67118916D01*
%TO.C,U64*%
X100738630Y82268916D02*
X101246630Y81760916D01*
X100738630Y81760916D02*
X101246630Y82268916D01*
%TO.C,U63*%
X100738630Y97418916D02*
X101246630Y96910916D01*
X100738630Y96910916D02*
X101246630Y97418916D01*
%TO.C,U62*%
X100738630Y112568916D02*
X101246630Y112060916D01*
X100738630Y112060916D02*
X101246630Y112568916D01*
%TO.C,U61*%
X100738630Y127718916D02*
X101246630Y127210916D01*
X100738630Y127210916D02*
X101246630Y127718916D01*
%TO.C,U60*%
X100738630Y142868916D02*
X101246630Y142360916D01*
X100738630Y142360916D02*
X101246630Y142868916D01*
%TO.C,U59*%
X100738630Y158018916D02*
X101246630Y157510916D01*
X100738630Y157510916D02*
X101246630Y158018916D01*
%TO.C,U58*%
X85588630Y21668916D02*
X86096630Y21160916D01*
X85588630Y21160916D02*
X86096630Y21668916D01*
%TO.C,U57*%
X85588630Y36818916D02*
X86096630Y36310916D01*
X85588630Y36310916D02*
X86096630Y36818916D01*
%TO.C,U56*%
X85588630Y51968916D02*
X86096630Y51460916D01*
X85588630Y51460916D02*
X86096630Y51968916D01*
%TO.C,U55*%
X85588630Y67118916D02*
X86096630Y66610916D01*
X85588630Y66610916D02*
X86096630Y67118916D01*
%TO.C,U54*%
X85588630Y82268916D02*
X86096630Y81760916D01*
X85588630Y81760916D02*
X86096630Y82268916D01*
%TO.C,U53*%
X85588630Y97418916D02*
X86096630Y96910916D01*
X85588630Y96910916D02*
X86096630Y97418916D01*
%TO.C,U52*%
X85588630Y112568916D02*
X86096630Y112060916D01*
X85588630Y112060916D02*
X86096630Y112568916D01*
%TO.C,U51*%
X85588630Y127718916D02*
X86096630Y127210916D01*
X85588630Y127210916D02*
X86096630Y127718916D01*
%TO.C,U50*%
X85588630Y142868916D02*
X86096630Y142360916D01*
X85588630Y142360916D02*
X86096630Y142868916D01*
%TO.C,U49*%
X85588630Y158018916D02*
X86096630Y157510916D01*
X85588630Y157510916D02*
X86096630Y158018916D01*
%TO.C,U48*%
X70438630Y21668916D02*
X70946630Y21160916D01*
X70438630Y21160916D02*
X70946630Y21668916D01*
%TO.C,U47*%
X70438630Y36818916D02*
X70946630Y36310916D01*
X70438630Y36310916D02*
X70946630Y36818916D01*
%TO.C,U46*%
X70438630Y51968916D02*
X70946630Y51460916D01*
X70438630Y51460916D02*
X70946630Y51968916D01*
%TO.C,U45*%
X70438630Y67118916D02*
X70946630Y66610916D01*
X70438630Y66610916D02*
X70946630Y67118916D01*
%TO.C,U44*%
X70438630Y82268916D02*
X70946630Y81760916D01*
X70438630Y81760916D02*
X70946630Y82268916D01*
%TO.C,U43*%
X70438630Y97418916D02*
X70946630Y96910916D01*
X70438630Y96910916D02*
X70946630Y97418916D01*
%TO.C,U42*%
X70438630Y112568916D02*
X70946630Y112060916D01*
X70438630Y112060916D02*
X70946630Y112568916D01*
%TO.C,U41*%
X70438630Y127718916D02*
X70946630Y127210916D01*
X70438630Y127210916D02*
X70946630Y127718916D01*
%TO.C,U40*%
X70438630Y142868916D02*
X70946630Y142360916D01*
X70438630Y142360916D02*
X70946630Y142868916D01*
%TO.C,U39*%
X70438630Y158018916D02*
X70946630Y157510916D01*
X70438630Y157510916D02*
X70946630Y158018916D01*
%TO.C,U38*%
X55288630Y21668916D02*
X55796630Y21160916D01*
X55288630Y21160916D02*
X55796630Y21668916D01*
%TO.C,U37*%
X55288630Y36818916D02*
X55796630Y36310916D01*
X55288630Y36310916D02*
X55796630Y36818916D01*
%TO.C,U36*%
X55288630Y51968916D02*
X55796630Y51460916D01*
X55288630Y51460916D02*
X55796630Y51968916D01*
%TO.C,U35*%
X55288630Y67118916D02*
X55796630Y66610916D01*
X55288630Y66610916D02*
X55796630Y67118916D01*
%TO.C,U34*%
X55288630Y82268916D02*
X55796630Y81760916D01*
X55288630Y81760916D02*
X55796630Y82268916D01*
%TO.C,U33*%
X55288630Y97418916D02*
X55796630Y96910916D01*
X55288630Y96910916D02*
X55796630Y97418916D01*
%TO.C,U32*%
X55288630Y112568916D02*
X55796630Y112060916D01*
X55288630Y112060916D02*
X55796630Y112568916D01*
%TO.C,U31*%
X55288630Y127718916D02*
X55796630Y127210916D01*
X55288630Y127210916D02*
X55796630Y127718916D01*
%TO.C,U30*%
X55288630Y142868916D02*
X55796630Y142360916D01*
X55288630Y142360916D02*
X55796630Y142868916D01*
%TO.C,U29*%
X55288630Y158018916D02*
X55796630Y157510916D01*
X55288630Y157510916D02*
X55796630Y158018916D01*
%TO.C,U28*%
X40138630Y21668916D02*
X40646630Y21160916D01*
X40138630Y21160916D02*
X40646630Y21668916D01*
%TO.C,U27*%
X40138630Y36818916D02*
X40646630Y36310916D01*
X40138630Y36310916D02*
X40646630Y36818916D01*
%TO.C,U26*%
X40138630Y51968916D02*
X40646630Y51460916D01*
X40138630Y51460916D02*
X40646630Y51968916D01*
%TO.C,U25*%
X40138630Y67118916D02*
X40646630Y66610916D01*
X40138630Y66610916D02*
X40646630Y67118916D01*
%TO.C,U24*%
X40138630Y82268916D02*
X40646630Y81760916D01*
X40138630Y81760916D02*
X40646630Y82268916D01*
%TO.C,U23*%
X40138630Y97418916D02*
X40646630Y96910916D01*
X40138630Y96910916D02*
X40646630Y97418916D01*
%TO.C,U22*%
X40138630Y112568916D02*
X40646630Y112060916D01*
X40138630Y112060916D02*
X40646630Y112568916D01*
%TO.C,U21*%
X40138630Y127718916D02*
X40646630Y127210916D01*
X40138630Y127210916D02*
X40646630Y127718916D01*
%TO.C,U20*%
X40138630Y142868916D02*
X40646630Y142360916D01*
X40138630Y142360916D02*
X40646630Y142868916D01*
%TO.C,U19*%
X40138630Y158018916D02*
X40646630Y157510916D01*
X40138630Y157510916D02*
X40646630Y158018916D01*
%TO.C,U18*%
X24988630Y21668916D02*
X25496630Y21160916D01*
X24988630Y21160916D02*
X25496630Y21668916D01*
%TO.C,U17*%
X24988630Y36818916D02*
X25496630Y36310916D01*
X24988630Y36310916D02*
X25496630Y36818916D01*
%TO.C,U16*%
X24988630Y51968916D02*
X25496630Y51460916D01*
X24988630Y51460916D02*
X25496630Y51968916D01*
%TO.C,U15*%
X24988630Y67118916D02*
X25496630Y66610916D01*
X24988630Y66610916D02*
X25496630Y67118916D01*
%TO.C,U14*%
X24988630Y82268916D02*
X25496630Y81760916D01*
X24988630Y81760916D02*
X25496630Y82268916D01*
%TO.C,U13*%
X24988630Y97418916D02*
X25496630Y96910916D01*
X24988630Y96910916D02*
X25496630Y97418916D01*
%TO.C,U12*%
X24988630Y112568916D02*
X25496630Y112060916D01*
X24988630Y112060916D02*
X25496630Y112568916D01*
%TO.C,U11*%
X24988630Y127718916D02*
X25496630Y127210916D01*
X24988630Y127210916D02*
X25496630Y127718916D01*
%TO.C,U10*%
X24988630Y142868916D02*
X25496630Y142360916D01*
X24988630Y142360916D02*
X25496630Y142868916D01*
%TO.C,U9*%
X24988630Y158018916D02*
X25496630Y157510916D01*
X24988630Y157510916D02*
X25496630Y158018916D01*
D11*
%TO.C,H1*%
X163812446Y102494971D02*
G75*
G02*
X158212446Y102494971I-2800000J0D01*
G01*
X158212446Y102494971D02*
G75*
G02*
X163812446Y102494971I2800000J0D01*
G01*
%TD*%
M02*
