M48
; DRILL file {KiCad 8.0.7} date 2024-12-29T17:24:51-0500
; FORMAT={-:-/ absolute / inch / decimal}
; #@! TF.CreationDate,2024-12-29T17:24:51-05:00
; #@! TF.GenerationSoftware,Kicad,Pcbnew,8.0.7
; #@! TF.FileFunction,NonPlated,1,4,NPTH
FMAT,2
INCH
; #@! TA.AperFunction,NonPlated,NPTH,ComponentDrill
T1C0.0256
; #@! TA.AperFunction,NonPlated,NPTH,ComponentDrill
T2C0.0689
; #@! TA.AperFunction,NonPlated,NPTH,ComponentDrill
T3C0.1200
; #@! TA.AperFunction,NonPlated,NPTH,ComponentDrill
T4C0.1570
%
G90
G05
T1
X5.9989Y3.4573
X6.2265Y3.4573
T2
X0.7938Y6.2112
X0.7938Y5.6148
X0.7938Y5.0183
X0.7938Y4.4218
X0.7938Y3.8254
X0.7938Y3.2289
X0.7938Y2.6325
X0.7938Y2.036
X0.7938Y1.4396
X0.7938Y0.8431
X1.1938Y6.2112
X1.1938Y5.6148
X1.1938Y5.0183
X1.1938Y4.4218
X1.1938Y3.8254
X1.1938Y3.2289
X1.1938Y2.6325
X1.1938Y2.036
X1.1938Y1.4396
X1.1938Y0.8431
X1.3903Y6.2112
X1.3903Y5.6148
X1.3903Y5.0183
X1.3903Y4.4218
X1.3903Y3.8254
X1.3903Y3.2289
X1.3903Y2.6325
X1.3903Y2.036
X1.3903Y1.4396
X1.3903Y0.8431
X1.7903Y6.2112
X1.7903Y5.6148
X1.7903Y5.0183
X1.7903Y4.4218
X1.7903Y3.8254
X1.7903Y3.2289
X1.7903Y2.6325
X1.7903Y2.036
X1.7903Y1.4396
X1.7903Y0.8431
X1.9867Y6.2112
X1.9867Y5.6148
X1.9867Y5.0183
X1.9867Y4.4218
X1.9867Y3.8254
X1.9867Y3.2289
X1.9867Y2.6325
X1.9867Y2.036
X1.9867Y1.4396
X1.9867Y0.8431
X2.3867Y6.2112
X2.3867Y5.6148
X2.3867Y5.0183
X2.3867Y4.4218
X2.3867Y3.8254
X2.3867Y3.2289
X2.3867Y2.6325
X2.3867Y2.036
X2.3867Y1.4396
X2.3867Y0.8431
X2.5832Y6.2112
X2.5832Y5.6148
X2.5832Y5.0183
X2.5832Y4.4218
X2.5832Y3.8254
X2.5832Y3.2289
X2.5832Y2.6325
X2.5832Y2.036
X2.5832Y1.4396
X2.5832Y0.8431
X2.9832Y6.2112
X2.9832Y5.6148
X2.9832Y5.0183
X2.9832Y4.4218
X2.9832Y3.8254
X2.9832Y3.2289
X2.9832Y2.6325
X2.9832Y2.036
X2.9832Y1.4396
X2.9832Y0.8431
X3.1796Y6.2112
X3.1796Y5.6148
X3.1796Y5.0183
X3.1796Y4.4218
X3.1796Y3.8254
X3.1796Y3.2289
X3.1796Y2.6325
X3.1796Y2.036
X3.1796Y1.4396
X3.1796Y0.8431
X3.5796Y6.2112
X3.5796Y5.6148
X3.5796Y5.0183
X3.5796Y4.4218
X3.5796Y3.8254
X3.5796Y3.2289
X3.5796Y2.6325
X3.5796Y2.036
X3.5796Y1.4396
X3.5796Y0.8431
X3.7761Y6.2112
X3.7761Y5.6148
X3.7761Y5.0183
X3.7761Y4.4218
X3.7761Y3.8254
X3.7761Y3.2289
X3.7761Y2.6325
X3.7761Y2.036
X3.7761Y1.4396
X3.7761Y0.8431
X4.1761Y6.2112
X4.1761Y5.6148
X4.1761Y5.0183
X4.1761Y4.4218
X4.1761Y3.8254
X4.1761Y3.2289
X4.1761Y2.6325
X4.1761Y2.036
X4.1761Y1.4396
X4.1761Y0.8431
X4.3725Y6.2112
X4.3725Y5.6148
X4.3725Y5.0183
X4.3725Y4.4218
X4.3725Y3.8254
X4.3725Y3.2289
X4.3725Y2.6325
X4.3725Y2.036
X4.3725Y1.4396
X4.3725Y0.8431
X4.7725Y6.2112
X4.7725Y5.6148
X4.7725Y5.0183
X4.7725Y4.4218
X4.7725Y3.8254
X4.7725Y3.2289
X4.7725Y2.6325
X4.7725Y2.036
X4.7725Y1.4396
X4.7725Y0.8431
X4.969Y6.2112
X4.969Y5.6148
X4.969Y5.0183
X4.969Y4.4218
X5.369Y6.2112
X5.369Y5.6148
X5.369Y5.0183
X5.369Y4.4218
T3
X5.5654Y5.8113
X5.5654Y5.0334
X5.5654Y4.2555
X6.5054Y5.8113
X6.5054Y5.0334
X6.5054Y4.2555
T4
X5.5654Y6.4113
X5.5654Y5.6334
X5.5654Y4.8555
X6.5054Y6.4113
X6.5054Y5.6334
X6.5054Y4.8555
M30
