%TF.GenerationSoftware,KiCad,Pcbnew,8.0.7*%
%TF.CreationDate,2024-12-29T17:24:51-05:00*%
%TF.ProjectId,HE75,48453735-2e6b-4696-9361-645f70636258,2.0.0*%
%TF.SameCoordinates,Original*%
%TF.FileFunction,Copper,L1,Top*%
%TF.FilePolarity,Positive*%
%FSLAX46Y46*%
G04 Gerber Fmt 4.6, Leading zero omitted, Abs format (unit mm)*
G04 Created by KiCad (PCBNEW 8.0.7) date 2024-12-29 17:24:51*
%MOMM*%
%LPD*%
G01*
G04 APERTURE LIST*
G04 Aperture macros list*
%AMRoundRect*
0 Rectangle with rounded corners*
0 $1 Rounding radius*
0 $2 $3 $4 $5 $6 $7 $8 $9 X,Y pos of 4 corners*
0 Add a 4 corners polygon primitive as box body*
4,1,4,$2,$3,$4,$5,$6,$7,$8,$9,$2,$3,0*
0 Add four circle primitives for the rounded corners*
1,1,$1+$1,$2,$3*
1,1,$1+$1,$4,$5*
1,1,$1+$1,$6,$7*
1,1,$1+$1,$8,$9*
0 Add four rect primitives between the rounded corners*
20,1,$1+$1,$2,$3,$4,$5,0*
20,1,$1+$1,$4,$5,$6,$7,0*
20,1,$1+$1,$6,$7,$8,$9,0*
20,1,$1+$1,$8,$9,$2,$3,0*%
G04 Aperture macros list end*
%TA.AperFunction,SMDPad,CuDef*%
%ADD10R,1.400000X1.200000*%
%TD*%
%TA.AperFunction,SMDPad,CuDef*%
%ADD11R,1.750000X0.450000*%
%TD*%
%TA.AperFunction,SMDPad,CuDef*%
%ADD12RoundRect,0.150000X-0.512500X-0.150000X0.512500X-0.150000X0.512500X0.150000X-0.512500X0.150000X0*%
%TD*%
%TA.AperFunction,SMDPad,CuDef*%
%ADD13RoundRect,0.075000X-0.662500X-0.075000X0.662500X-0.075000X0.662500X0.075000X-0.662500X0.075000X0*%
%TD*%
%TA.AperFunction,SMDPad,CuDef*%
%ADD14RoundRect,0.075000X-0.075000X-0.662500X0.075000X-0.662500X0.075000X0.662500X-0.075000X0.662500X0*%
%TD*%
%TA.AperFunction,SMDPad,CuDef*%
%ADD15R,1.700000X1.000000*%
%TD*%
%TA.AperFunction,SMDPad,CuDef*%
%ADD16RoundRect,0.135000X-0.135000X-0.185000X0.135000X-0.185000X0.135000X0.185000X-0.135000X0.185000X0*%
%TD*%
%TA.AperFunction,SMDPad,CuDef*%
%ADD17R,0.600000X1.450000*%
%TD*%
%TA.AperFunction,SMDPad,CuDef*%
%ADD18R,0.300000X1.450000*%
%TD*%
%TA.AperFunction,ComponentPad*%
%ADD19O,1.000000X2.100000*%
%TD*%
%TA.AperFunction,ComponentPad*%
%ADD20O,1.000000X1.600000*%
%TD*%
%TA.AperFunction,ComponentPad*%
%ADD21C,3.600000*%
%TD*%
%TA.AperFunction,ConnectorPad*%
%ADD22C,5.600000*%
%TD*%
%TA.AperFunction,SMDPad,CuDef*%
%ADD23RoundRect,0.218750X-0.218750X-0.381250X0.218750X-0.381250X0.218750X0.381250X-0.218750X0.381250X0*%
%TD*%
%TA.AperFunction,SMDPad,CuDef*%
%ADD24RoundRect,0.250000X-0.375000X-0.625000X0.375000X-0.625000X0.375000X0.625000X-0.375000X0.625000X0*%
%TD*%
%TA.AperFunction,SMDPad,CuDef*%
%ADD25RoundRect,0.150000X0.150000X0.200000X-0.150000X0.200000X-0.150000X-0.200000X0.150000X-0.200000X0*%
%TD*%
%TA.AperFunction,SMDPad,CuDef*%
%ADD26RoundRect,0.140000X-0.140000X-0.170000X0.140000X-0.170000X0.140000X0.170000X-0.140000X0.170000X0*%
%TD*%
%TA.AperFunction,SMDPad,CuDef*%
%ADD27RoundRect,0.225000X-0.225000X-0.250000X0.225000X-0.250000X0.225000X0.250000X-0.225000X0.250000X0*%
%TD*%
G04 APERTURE END LIST*
D10*
%TO.P,Y1,1,1*%
%TO.N,/OSC_IN*%
X158962446Y92554971D03*
%TO.P,Y1,2,2*%
%TO.N,GND*%
X161162446Y92554971D03*
%TO.P,Y1,3,3*%
%TO.N,/OSC_OUT*%
X161162446Y94254971D03*
%TO.P,Y1,4,4*%
%TO.N,GND*%
X158962446Y94254971D03*
%TD*%
D11*
%TO.P,U8,1,COM*%
%TO.N,/AM4*%
X140542446Y64419971D03*
%TO.P,U8,2,I7*%
%TO.N,/AM4:07*%
X140542446Y63769971D03*
%TO.P,U8,3,I6*%
%TO.N,/AM4:06*%
X140542446Y63119971D03*
%TO.P,U8,4,I5*%
%TO.N,/AM4:05*%
X140542446Y62469971D03*
%TO.P,U8,5,I4*%
%TO.N,/AM4:04*%
X140542446Y61819971D03*
%TO.P,U8,6,I3*%
%TO.N,/AM4:03*%
X140542446Y61169971D03*
%TO.P,U8,7,I2*%
%TO.N,/AM4:02*%
X140542446Y60519971D03*
%TO.P,U8,8,I1*%
%TO.N,/AM4:01*%
X140542446Y59869971D03*
%TO.P,U8,9,I0*%
%TO.N,/AM4:00*%
X140542446Y59219971D03*
%TO.P,U8,10,S0*%
%TO.N,/S0*%
X140542446Y58569971D03*
%TO.P,U8,11,S1*%
%TO.N,/S1*%
X140542446Y57919971D03*
%TO.P,U8,12,GND*%
%TO.N,GND*%
X140542446Y57269971D03*
%TO.P,U8,13,S3*%
%TO.N,/S3*%
X147742446Y57269971D03*
%TO.P,U8,14,S2*%
%TO.N,/S2*%
X147742446Y57919971D03*
%TO.P,U8,15,~{E}*%
%TO.N,GND*%
X147742446Y58569971D03*
%TO.P,U8,16,I15*%
%TO.N,/AM4:15*%
X147742446Y59219971D03*
%TO.P,U8,17,I14*%
%TO.N,/AM4:14*%
X147742446Y59869971D03*
%TO.P,U8,18,I13*%
%TO.N,/AM4:13*%
X147742446Y60519971D03*
%TO.P,U8,19,I12*%
%TO.N,/AM4:12*%
X147742446Y61169971D03*
%TO.P,U8,20,I11*%
%TO.N,/AM4:11*%
X147742446Y61819971D03*
%TO.P,U8,21,I10*%
%TO.N,/AM4:10*%
X147742446Y62469971D03*
%TO.P,U8,22,I9*%
%TO.N,/AM4:09*%
X147742446Y63119971D03*
%TO.P,U8,23,I8*%
%TO.N,/AM4:08*%
X147742446Y63769971D03*
%TO.P,U8,24,VCC*%
%TO.N,+3.3VA*%
X147742446Y64419971D03*
%TD*%
%TO.P,U7,1,COM*%
%TO.N,/AM3*%
X140542446Y74469971D03*
%TO.P,U7,2,I7*%
%TO.N,/AM3:07*%
X140542446Y73819971D03*
%TO.P,U7,3,I6*%
%TO.N,/AM3:06*%
X140542446Y73169971D03*
%TO.P,U7,4,I5*%
%TO.N,/AM3:05*%
X140542446Y72519971D03*
%TO.P,U7,5,I4*%
%TO.N,/AM3:04*%
X140542446Y71869971D03*
%TO.P,U7,6,I3*%
%TO.N,/AM3:03*%
X140542446Y71219971D03*
%TO.P,U7,7,I2*%
%TO.N,/AM3:02*%
X140542446Y70569971D03*
%TO.P,U7,8,I1*%
%TO.N,/AM3:01*%
X140542446Y69919971D03*
%TO.P,U7,9,I0*%
%TO.N,/AM3:00*%
X140542446Y69269971D03*
%TO.P,U7,10,S0*%
%TO.N,/S0*%
X140542446Y68619971D03*
%TO.P,U7,11,S1*%
%TO.N,/S1*%
X140542446Y67969971D03*
%TO.P,U7,12,GND*%
%TO.N,GND*%
X140542446Y67319971D03*
%TO.P,U7,13,S3*%
%TO.N,/S3*%
X147742446Y67319971D03*
%TO.P,U7,14,S2*%
%TO.N,/S2*%
X147742446Y67969971D03*
%TO.P,U7,15,~{E}*%
%TO.N,GND*%
X147742446Y68619971D03*
%TO.P,U7,16,I15*%
%TO.N,/AM3:15*%
X147742446Y69269971D03*
%TO.P,U7,17,I14*%
%TO.N,/AM3:14*%
X147742446Y69919971D03*
%TO.P,U7,18,I13*%
%TO.N,/AM3:13*%
X147742446Y70569971D03*
%TO.P,U7,19,I12*%
%TO.N,/AM3:12*%
X147742446Y71219971D03*
%TO.P,U7,20,I11*%
%TO.N,/AM3:11*%
X147742446Y71869971D03*
%TO.P,U7,21,I10*%
%TO.N,/AM3:10*%
X147742446Y72519971D03*
%TO.P,U7,22,I9*%
%TO.N,/AM3:09*%
X147742446Y73169971D03*
%TO.P,U7,23,I8*%
%TO.N,/AM3:08*%
X147742446Y73819971D03*
%TO.P,U7,24,VCC*%
%TO.N,+3.3VA*%
X147742446Y74469971D03*
%TD*%
%TO.P,U6,1,COM*%
%TO.N,/AM2*%
X140542446Y84519971D03*
%TO.P,U6,2,I7*%
%TO.N,/AM2:07*%
X140542446Y83869971D03*
%TO.P,U6,3,I6*%
%TO.N,/AM2:06*%
X140542446Y83219971D03*
%TO.P,U6,4,I5*%
%TO.N,/AM2:05*%
X140542446Y82569971D03*
%TO.P,U6,5,I4*%
%TO.N,/AM2:04*%
X140542446Y81919971D03*
%TO.P,U6,6,I3*%
%TO.N,/AM2:03*%
X140542446Y81269971D03*
%TO.P,U6,7,I2*%
%TO.N,/AM2:02*%
X140542446Y80619971D03*
%TO.P,U6,8,I1*%
%TO.N,/AM2:01*%
X140542446Y79969971D03*
%TO.P,U6,9,I0*%
%TO.N,/AM2:00*%
X140542446Y79319971D03*
%TO.P,U6,10,S0*%
%TO.N,/S0*%
X140542446Y78669971D03*
%TO.P,U6,11,S1*%
%TO.N,/S1*%
X140542446Y78019971D03*
%TO.P,U6,12,GND*%
%TO.N,GND*%
X140542446Y77369971D03*
%TO.P,U6,13,S3*%
%TO.N,/S3*%
X147742446Y77369971D03*
%TO.P,U6,14,S2*%
%TO.N,/S2*%
X147742446Y78019971D03*
%TO.P,U6,15,~{E}*%
%TO.N,GND*%
X147742446Y78669971D03*
%TO.P,U6,16,I15*%
%TO.N,/AM2:15*%
X147742446Y79319971D03*
%TO.P,U6,17,I14*%
%TO.N,/AM2:14*%
X147742446Y79969971D03*
%TO.P,U6,18,I13*%
%TO.N,/AM2:13*%
X147742446Y80619971D03*
%TO.P,U6,19,I12*%
%TO.N,/AM2:12*%
X147742446Y81269971D03*
%TO.P,U6,20,I11*%
%TO.N,/AM2:11*%
X147742446Y81919971D03*
%TO.P,U6,21,I10*%
%TO.N,/AM2:10*%
X147742446Y82569971D03*
%TO.P,U6,22,I9*%
%TO.N,/AM2:09*%
X147742446Y83219971D03*
%TO.P,U6,23,I8*%
%TO.N,/AM2:08*%
X147742446Y83869971D03*
%TO.P,U6,24,VCC*%
%TO.N,+3.3VA*%
X147742446Y84519971D03*
%TD*%
%TO.P,U5,1,COM*%
%TO.N,/AM1*%
X140542446Y94569971D03*
%TO.P,U5,2,I7*%
%TO.N,/AM1:07*%
X140542446Y93919971D03*
%TO.P,U5,3,I6*%
%TO.N,/AM1:06*%
X140542446Y93269971D03*
%TO.P,U5,4,I5*%
%TO.N,/AM1:05*%
X140542446Y92619971D03*
%TO.P,U5,5,I4*%
%TO.N,/AM1:04*%
X140542446Y91969971D03*
%TO.P,U5,6,I3*%
%TO.N,/AM1:03*%
X140542446Y91319971D03*
%TO.P,U5,7,I2*%
%TO.N,/AM1:02*%
X140542446Y90669971D03*
%TO.P,U5,8,I1*%
%TO.N,/AM1:01*%
X140542446Y90019971D03*
%TO.P,U5,9,I0*%
%TO.N,/AM1:00*%
X140542446Y89369971D03*
%TO.P,U5,10,S0*%
%TO.N,/S0*%
X140542446Y88719971D03*
%TO.P,U5,11,S1*%
%TO.N,/S1*%
X140542446Y88069971D03*
%TO.P,U5,12,GND*%
%TO.N,GND*%
X140542446Y87419971D03*
%TO.P,U5,13,S3*%
%TO.N,/S3*%
X147742446Y87419971D03*
%TO.P,U5,14,S2*%
%TO.N,/S2*%
X147742446Y88069971D03*
%TO.P,U5,15,~{E}*%
%TO.N,GND*%
X147742446Y88719971D03*
%TO.P,U5,16,I15*%
%TO.N,/AM1:15*%
X147742446Y89369971D03*
%TO.P,U5,17,I14*%
%TO.N,/AM1:14*%
X147742446Y90019971D03*
%TO.P,U5,18,I13*%
%TO.N,/AM1:13*%
X147742446Y90669971D03*
%TO.P,U5,19,I12*%
%TO.N,/AM1:12*%
X147742446Y91319971D03*
%TO.P,U5,20,I11*%
%TO.N,/AM1:11*%
X147742446Y91969971D03*
%TO.P,U5,21,I10*%
%TO.N,/AM1:10*%
X147742446Y92619971D03*
%TO.P,U5,22,I9*%
%TO.N,/AM1:09*%
X147742446Y93269971D03*
%TO.P,U5,23,I8*%
%TO.N,/AM1:08*%
X147742446Y93919971D03*
%TO.P,U5,24,VCC*%
%TO.N,+3.3VA*%
X147742446Y94569971D03*
%TD*%
%TO.P,U4,1,COM*%
%TO.N,/AM0*%
X140542446Y104619971D03*
%TO.P,U4,2,I7*%
%TO.N,/AM0:07*%
X140542446Y103969971D03*
%TO.P,U4,3,I6*%
%TO.N,/AM0:06*%
X140542446Y103319971D03*
%TO.P,U4,4,I5*%
%TO.N,/AM0:05*%
X140542446Y102669971D03*
%TO.P,U4,5,I4*%
%TO.N,/AM0:04*%
X140542446Y102019971D03*
%TO.P,U4,6,I3*%
%TO.N,/AM0:03*%
X140542446Y101369971D03*
%TO.P,U4,7,I2*%
%TO.N,/AM0:02*%
X140542446Y100719971D03*
%TO.P,U4,8,I1*%
%TO.N,/AM0:01*%
X140542446Y100069971D03*
%TO.P,U4,9,I0*%
%TO.N,/AM0:00*%
X140542446Y99419971D03*
%TO.P,U4,10,S0*%
%TO.N,/S0*%
X140542446Y98769971D03*
%TO.P,U4,11,S1*%
%TO.N,/S1*%
X140542446Y98119971D03*
%TO.P,U4,12,GND*%
%TO.N,GND*%
X140542446Y97469971D03*
%TO.P,U4,13,S3*%
%TO.N,/S3*%
X147742446Y97469971D03*
%TO.P,U4,14,S2*%
%TO.N,/S2*%
X147742446Y98119971D03*
%TO.P,U4,15,~{E}*%
%TO.N,GND*%
X147742446Y98769971D03*
%TO.P,U4,16,I15*%
%TO.N,/AM0:15*%
X147742446Y99419971D03*
%TO.P,U4,17,I14*%
%TO.N,/AM0:14*%
X147742446Y100069971D03*
%TO.P,U4,18,I13*%
%TO.N,/AM0:13*%
X147742446Y100719971D03*
%TO.P,U4,19,I12*%
%TO.N,/AM0:12*%
X147742446Y101369971D03*
%TO.P,U4,20,I11*%
%TO.N,/AM0:11*%
X147742446Y102019971D03*
%TO.P,U4,21,I10*%
%TO.N,/AM0:10*%
X147742446Y102669971D03*
%TO.P,U4,22,I9*%
%TO.N,/AM0:09*%
X147742446Y103319971D03*
%TO.P,U4,23,I8*%
%TO.N,/AM0:08*%
X147742446Y103969971D03*
%TO.P,U4,24,VCC*%
%TO.N,+3.3VA*%
X147742446Y104619971D03*
%TD*%
D12*
%TO.P,U3,1,GND*%
%TO.N,GND*%
X160404946Y63114971D03*
%TO.P,U3,2,VO*%
%TO.N,+3.3V*%
X160404946Y61214971D03*
%TO.P,U3,3,VI*%
%TO.N,+5V*%
X162679946Y62164971D03*
%TD*%
%TO.P,U2,1,I/O1*%
%TO.N,/MCU_D+*%
X160404946Y67739971D03*
%TO.P,U2,2,GND*%
%TO.N,GND*%
X160404946Y66789971D03*
%TO.P,U2,3,I/O2*%
%TO.N,/MCU_D-*%
X160404946Y65839971D03*
%TO.P,U2,4,I/O2*%
%TO.N,/USB_D-*%
X162679946Y65839971D03*
%TO.P,U2,5,VBUS*%
%TO.N,VBUS*%
X162679946Y66789971D03*
%TO.P,U2,6,I/O1*%
%TO.N,/USB_D+*%
X162679946Y67739971D03*
%TD*%
D13*
%TO.P,U1,1,VBAT*%
%TO.N,+3.3V*%
X150929946Y77614971D03*
%TO.P,U1,2,PC13*%
%TO.N,/C13*%
X150929946Y77114971D03*
%TO.P,U1,3,PC14*%
%TO.N,/C14*%
X150929946Y76614971D03*
%TO.P,U1,4,PC15*%
%TO.N,/C15*%
X150929946Y76114971D03*
%TO.P,U1,5,PF0*%
%TO.N,/OSC_IN*%
X150929946Y75614971D03*
%TO.P,U1,6,PF1*%
%TO.N,/OSC_OUT*%
X150929946Y75114971D03*
%TO.P,U1,7,NRST*%
%TO.N,/NRST*%
X150929946Y74614971D03*
%TO.P,U1,8,VSSA*%
%TO.N,GND*%
X150929946Y74114971D03*
%TO.P,U1,9,VDDA*%
%TO.N,+3.3VA*%
X150929946Y73614971D03*
%TO.P,U1,10,PA0*%
%TO.N,/A00*%
X150929946Y73114971D03*
%TO.P,U1,11,PA1*%
%TO.N,/A01*%
X150929946Y72614971D03*
%TO.P,U1,12,PA2*%
%TO.N,/A02*%
X150929946Y72114971D03*
D14*
%TO.P,U1,13,PA3*%
%TO.N,/A03*%
X152342446Y70702471D03*
%TO.P,U1,14,PA4*%
%TO.N,/A04*%
X152842446Y70702471D03*
%TO.P,U1,15,PA5*%
%TO.N,/A05*%
X153342446Y70702471D03*
%TO.P,U1,16,PA6*%
%TO.N,/A06*%
X153842446Y70702471D03*
%TO.P,U1,17,PA7*%
%TO.N,/A07*%
X154342446Y70702471D03*
%TO.P,U1,18,PB0*%
%TO.N,/B00*%
X154842446Y70702471D03*
%TO.P,U1,19,PB1*%
%TO.N,/S2*%
X155342446Y70702471D03*
%TO.P,U1,20,PB2*%
%TO.N,/S3*%
X155842446Y70702471D03*
%TO.P,U1,21,PB10*%
%TO.N,/S1*%
X156342446Y70702471D03*
%TO.P,U1,22,PB11*%
%TO.N,/S0*%
X156842446Y70702471D03*
%TO.P,U1,23,VSS*%
%TO.N,GND*%
X157342446Y70702471D03*
%TO.P,U1,24,VDD*%
%TO.N,+3.3V*%
X157842446Y70702471D03*
D13*
%TO.P,U1,25,PB12*%
%TO.N,/B12*%
X159254946Y72114971D03*
%TO.P,U1,26,PB13*%
%TO.N,/B13*%
X159254946Y72614971D03*
%TO.P,U1,27,PB14*%
%TO.N,/B14*%
X159254946Y73114971D03*
%TO.P,U1,28,PB15*%
%TO.N,/B15*%
X159254946Y73614971D03*
%TO.P,U1,29,PA8*%
%TO.N,/A08*%
X159254946Y74114971D03*
%TO.P,U1,30,PA9*%
%TO.N,/A09*%
X159254946Y74614971D03*
%TO.P,U1,31,PA10*%
%TO.N,/A10*%
X159254946Y75114971D03*
%TO.P,U1,32,PA11*%
%TO.N,/MCU_D-*%
X159254946Y75614971D03*
%TO.P,U1,33,PA12*%
%TO.N,/MCU_D+*%
X159254946Y76114971D03*
%TO.P,U1,34,PA13*%
%TO.N,/A13*%
X159254946Y76614971D03*
%TO.P,U1,35,VSS*%
%TO.N,GND*%
X159254946Y77114971D03*
%TO.P,U1,36,VDD*%
%TO.N,+3.3V*%
X159254946Y77614971D03*
D14*
%TO.P,U1,37,PA14*%
%TO.N,/A14*%
X157842446Y79027471D03*
%TO.P,U1,38,PA15*%
%TO.N,/A15*%
X157342446Y79027471D03*
%TO.P,U1,39,PB3*%
%TO.N,/B03*%
X156842446Y79027471D03*
%TO.P,U1,40,PB4*%
%TO.N,/B04*%
X156342446Y79027471D03*
%TO.P,U1,41,PB5*%
%TO.N,/B05*%
X155842446Y79027471D03*
%TO.P,U1,42,PB6*%
%TO.N,/B06*%
X155342446Y79027471D03*
%TO.P,U1,43,PB7*%
%TO.N,/B07*%
X154842446Y79027471D03*
%TO.P,U1,44,BOOT0*%
%TO.N,/BOOT0*%
X154342446Y79027471D03*
%TO.P,U1,45,PB8*%
%TO.N,/B08*%
X153842446Y79027471D03*
%TO.P,U1,46,PB9*%
%TO.N,/B09*%
X153342446Y79027471D03*
%TO.P,U1,47,VSS*%
%TO.N,GND*%
X152842446Y79027471D03*
%TO.P,U1,48,VDD*%
%TO.N,+3.3V*%
X152342446Y79027471D03*
%TD*%
D15*
%TO.P,SW1,1,1*%
%TO.N,+3.3V*%
X151042446Y67564971D03*
X157342446Y67564971D03*
%TO.P,SW1,2,2*%
%TO.N,/BOOT0*%
X151042446Y63764971D03*
X157342446Y63764971D03*
%TD*%
D16*
%TO.P,R4,1*%
%TO.N,/USB_D+*%
X165062446Y62224971D03*
%TO.P,R4,2*%
%TO.N,+3.3V*%
X166082446Y62224971D03*
%TD*%
%TO.P,R3,1*%
%TO.N,Net-(J1-CC2)*%
X165062446Y64214971D03*
%TO.P,R3,2*%
%TO.N,GND*%
X166082446Y64214971D03*
%TD*%
%TO.P,R2,1*%
%TO.N,Net-(J1-CC1)*%
X165062446Y66204971D03*
%TO.P,R2,2*%
%TO.N,GND*%
X166082446Y66204971D03*
%TD*%
%TO.P,R1,1*%
%TO.N,GND*%
X165062446Y68194971D03*
%TO.P,R1,2*%
%TO.N,/BOOT0*%
X166082446Y68194971D03*
%TD*%
D17*
%TO.P,J1,A1,GND*%
%TO.N,GND*%
X152012446Y89259971D03*
%TO.P,J1,A4,VBUS*%
%TO.N,VBUS*%
X152812446Y89259971D03*
D18*
%TO.P,J1,A5,CC1*%
%TO.N,Net-(J1-CC1)*%
X154012446Y89259971D03*
%TO.P,J1,A6,D+*%
%TO.N,/USB_D+*%
X155012446Y89259971D03*
%TO.P,J1,A7,D-*%
%TO.N,/USB_D-*%
X155512446Y89259971D03*
%TO.P,J1,A8,SBU1*%
%TO.N,unconnected-(J1-SBU1-PadA8)*%
X156512446Y89259971D03*
D17*
%TO.P,J1,A9,VBUS*%
%TO.N,VBUS*%
X157712446Y89259971D03*
%TO.P,J1,A12,GND*%
%TO.N,GND*%
X158512446Y89259971D03*
%TO.P,J1,B1,GND*%
X158512446Y89259971D03*
%TO.P,J1,B4,VBUS*%
%TO.N,VBUS*%
X157712446Y89259971D03*
D18*
%TO.P,J1,B5,CC2*%
%TO.N,Net-(J1-CC2)*%
X157012446Y89259971D03*
%TO.P,J1,B6,D+*%
%TO.N,/USB_D+*%
X156012446Y89259971D03*
%TO.P,J1,B7,D-*%
%TO.N,/USB_D-*%
X154512446Y89259971D03*
%TO.P,J1,B8,SBU2*%
%TO.N,unconnected-(J1-SBU2-PadB8)*%
X153512446Y89259971D03*
D17*
%TO.P,J1,B9,VBUS*%
%TO.N,VBUS*%
X152812446Y89259971D03*
%TO.P,J1,B12,GND*%
%TO.N,GND*%
X152012446Y89259971D03*
D19*
%TO.P,J1,S1,SHIELD*%
%TO.N,GNDPWR*%
X150942446Y88344971D03*
D20*
X150942446Y84164971D03*
D19*
X159582446Y88344971D03*
D20*
X159582446Y84164971D03*
%TD*%
D21*
%TO.P,H1,1,1*%
%TO.N,GNDPWR*%
X161012446Y102494971D03*
D22*
X161012446Y102494971D03*
%TD*%
D23*
%TO.P,FB2,1*%
%TO.N,GND*%
X164259946Y94794971D03*
%TO.P,FB2,2*%
%TO.N,GNDPWR*%
X166384946Y94794971D03*
%TD*%
%TO.P,FB1,1*%
%TO.N,+3.3V*%
X164259946Y97544971D03*
%TO.P,FB1,2*%
%TO.N,+3.3VA*%
X166384946Y97544971D03*
%TD*%
D24*
%TO.P,F1,1*%
%TO.N,VBUS*%
X158842446Y97274971D03*
%TO.P,F1,2*%
%TO.N,+5V*%
X161642446Y97274971D03*
%TD*%
D25*
%TO.P,D1,1,A1*%
%TO.N,VBUS*%
X160087446Y58714971D03*
%TO.P,D1,2,A2*%
%TO.N,GND*%
X161487446Y58714971D03*
%TD*%
D26*
%TO.P,C13,1*%
%TO.N,GND*%
X165542446Y103114971D03*
%TO.P,C13,2*%
%TO.N,/OSC_OUT*%
X166502446Y103114971D03*
%TD*%
%TO.P,C12,1*%
%TO.N,GND*%
X165542446Y105084971D03*
%TO.P,C12,2*%
%TO.N,/OSC_IN*%
X166502446Y105084971D03*
%TD*%
D27*
%TO.P,C11,1*%
%TO.N,GND*%
X154657446Y94774971D03*
%TO.P,C11,2*%
%TO.N,+3.3V*%
X156207446Y94774971D03*
%TD*%
%TO.P,C10,1*%
%TO.N,GND*%
X154657446Y97284971D03*
%TO.P,C10,2*%
%TO.N,+3.3V*%
X156207446Y97284971D03*
%TD*%
%TO.P,C9,1*%
%TO.N,GND*%
X154657446Y99794971D03*
%TO.P,C9,2*%
%TO.N,+3.3V*%
X156207446Y99794971D03*
%TD*%
%TO.P,C8,1*%
%TO.N,GND*%
X154657446Y102304971D03*
%TO.P,C8,2*%
%TO.N,+5V*%
X156207446Y102304971D03*
%TD*%
%TO.P,C7,1*%
%TO.N,GND*%
X154657446Y104814971D03*
%TO.P,C7,2*%
%TO.N,+3.3V*%
X156207446Y104814971D03*
%TD*%
%TO.P,C6,1*%
%TO.N,GND*%
X150647446Y92264971D03*
%TO.P,C6,2*%
%TO.N,+3.3V*%
X152197446Y92264971D03*
%TD*%
%TO.P,C5,1*%
%TO.N,GND*%
X150647446Y94774971D03*
%TO.P,C5,2*%
%TO.N,+3.3V*%
X152197446Y94774971D03*
%TD*%
%TO.P,C4,1*%
%TO.N,GND*%
X150647446Y97284971D03*
%TO.P,C4,2*%
%TO.N,+3.3V*%
X152197446Y97284971D03*
%TD*%
%TO.P,C3,1*%
%TO.N,GND*%
X150647446Y99794971D03*
%TO.P,C3,2*%
%TO.N,+3.3VA*%
X152197446Y99794971D03*
%TD*%
%TO.P,C2,1*%
%TO.N,GND*%
X150647446Y102304971D03*
%TO.P,C2,2*%
%TO.N,+3.3VA*%
X152197446Y102304971D03*
%TD*%
%TO.P,C1,1*%
%TO.N,/NRST*%
X150647446Y104814971D03*
%TO.P,C1,2*%
%TO.N,GND*%
X152197446Y104814971D03*
%TD*%
M02*
