%TF.GenerationSoftware,KiCad,Pcbnew,8.0.7*%
%TF.CreationDate,2024-12-29T17:24:51-05:00*%
%TF.ProjectId,HE75,48453735-2e6b-4696-9361-645f70636258,2.0.0*%
%TF.SameCoordinates,Original*%
%TF.FileFunction,Soldermask,Top*%
%TF.FilePolarity,Negative*%
%FSLAX46Y46*%
G04 Gerber Fmt 4.6, Leading zero omitted, Abs format (unit mm)*
G04 Created by KiCad (PCBNEW 8.0.7) date 2024-12-29 17:24:51*
%MOMM*%
%LPD*%
G01*
G04 APERTURE LIST*
G04 Aperture macros list*
%AMRoundRect*
0 Rectangle with rounded corners*
0 $1 Rounding radius*
0 $2 $3 $4 $5 $6 $7 $8 $9 X,Y pos of 4 corners*
0 Add a 4 corners polygon primitive as box body*
4,1,4,$2,$3,$4,$5,$6,$7,$8,$9,$2,$3,0*
0 Add four circle primitives for the rounded corners*
1,1,$1+$1,$2,$3*
1,1,$1+$1,$4,$5*
1,1,$1+$1,$6,$7*
1,1,$1+$1,$8,$9*
0 Add four rect primitives between the rounded corners*
20,1,$1+$1,$2,$3,$4,$5,0*
20,1,$1+$1,$4,$5,$6,$7,0*
20,1,$1+$1,$6,$7,$8,$9,0*
20,1,$1+$1,$8,$9,$2,$3,0*%
G04 Aperture macros list end*
%ADD10R,1.400000X1.200000*%
%ADD11C,1.750000*%
%ADD12R,1.750000X0.450000*%
%ADD13RoundRect,0.150000X-0.512500X-0.150000X0.512500X-0.150000X0.512500X0.150000X-0.512500X0.150000X0*%
%ADD14RoundRect,0.075000X-0.662500X-0.075000X0.662500X-0.075000X0.662500X0.075000X-0.662500X0.075000X0*%
%ADD15RoundRect,0.075000X-0.075000X-0.662500X0.075000X-0.662500X0.075000X0.662500X-0.075000X0.662500X0*%
%ADD16R,1.700000X1.000000*%
%ADD17C,3.987800*%
%ADD18C,3.048000*%
%ADD19RoundRect,0.135000X-0.135000X-0.185000X0.135000X-0.185000X0.135000X0.185000X-0.135000X0.185000X0*%
%ADD20C,0.650000*%
%ADD21R,0.600000X1.450000*%
%ADD22R,0.300000X1.450000*%
%ADD23O,1.000000X2.100000*%
%ADD24O,1.000000X1.600000*%
%ADD25C,3.600000*%
%ADD26C,5.600000*%
%ADD27RoundRect,0.218750X-0.218750X-0.381250X0.218750X-0.381250X0.218750X0.381250X-0.218750X0.381250X0*%
%ADD28RoundRect,0.250000X-0.375000X-0.625000X0.375000X-0.625000X0.375000X0.625000X-0.375000X0.625000X0*%
%ADD29RoundRect,0.150000X0.150000X0.200000X-0.150000X0.200000X-0.150000X-0.200000X0.150000X-0.200000X0*%
%ADD30RoundRect,0.140000X-0.140000X-0.170000X0.140000X-0.170000X0.140000X0.170000X-0.140000X0.170000X0*%
%ADD31RoundRect,0.225000X-0.225000X-0.250000X0.225000X-0.250000X0.225000X0.250000X-0.225000X0.250000X0*%
G04 APERTURE END LIST*
D10*
%TO.C,Y1*%
X158962446Y92554971D03*
X161162446Y92554971D03*
X161162446Y94254971D03*
X158962446Y94254971D03*
%TD*%
D11*
%TO.C,U82*%
X126212446Y112314971D03*
X136372446Y112314971D03*
%TD*%
%TO.C,U81*%
X126212446Y127464971D03*
X136372446Y127464971D03*
%TD*%
%TO.C,U80*%
X126212446Y142614971D03*
X136372446Y142614971D03*
%TD*%
%TO.C,U79*%
X126212446Y157764971D03*
X136372446Y157764971D03*
%TD*%
%TO.C,U78*%
X111062446Y21414971D03*
X121222446Y21414971D03*
%TD*%
%TO.C,U77*%
X111062446Y36564971D03*
X121222446Y36564971D03*
%TD*%
%TO.C,U76*%
X111062446Y51714971D03*
X121222446Y51714971D03*
%TD*%
%TO.C,U75*%
X111062446Y66864971D03*
X121222446Y66864971D03*
%TD*%
%TO.C,U74*%
X111062446Y82014971D03*
X121222446Y82014971D03*
%TD*%
%TO.C,U73*%
X111062446Y97164971D03*
X121222446Y97164971D03*
%TD*%
%TO.C,U72*%
X111062446Y112314971D03*
X121222446Y112314971D03*
%TD*%
%TO.C,U71*%
X111062446Y127464971D03*
X121222446Y127464971D03*
%TD*%
%TO.C,U70*%
X111062446Y142614971D03*
X121222446Y142614971D03*
%TD*%
%TO.C,U69*%
X111062446Y157764971D03*
X121222446Y157764971D03*
%TD*%
%TO.C,U68*%
X95912446Y21414971D03*
X106072446Y21414971D03*
%TD*%
%TO.C,U67*%
X95912446Y36564971D03*
X106072446Y36564971D03*
%TD*%
%TO.C,U66*%
X95912446Y51714971D03*
X106072446Y51714971D03*
%TD*%
%TO.C,U65*%
X95912446Y66864971D03*
X106072446Y66864971D03*
%TD*%
%TO.C,U64*%
X95912446Y82014971D03*
X106072446Y82014971D03*
%TD*%
%TO.C,U63*%
X95912446Y97164971D03*
X106072446Y97164971D03*
%TD*%
%TO.C,U62*%
X95912446Y112314971D03*
X106072446Y112314971D03*
%TD*%
%TO.C,U61*%
X95912446Y127464971D03*
X106072446Y127464971D03*
%TD*%
%TO.C,U60*%
X95912446Y142614971D03*
X106072446Y142614971D03*
%TD*%
%TO.C,U59*%
X95912446Y157764971D03*
X106072446Y157764971D03*
%TD*%
%TO.C,U58*%
X80762446Y21414971D03*
X90922446Y21414971D03*
%TD*%
%TO.C,U57*%
X80762446Y36564971D03*
X90922446Y36564971D03*
%TD*%
%TO.C,U56*%
X80762446Y51714971D03*
X90922446Y51714971D03*
%TD*%
%TO.C,U55*%
X80762446Y66864971D03*
X90922446Y66864971D03*
%TD*%
%TO.C,U54*%
X80762446Y82014971D03*
X90922446Y82014971D03*
%TD*%
%TO.C,U53*%
X80762446Y97164971D03*
X90922446Y97164971D03*
%TD*%
%TO.C,U52*%
X80762446Y112314971D03*
X90922446Y112314971D03*
%TD*%
%TO.C,U51*%
X80762446Y127464971D03*
X90922446Y127464971D03*
%TD*%
%TO.C,U50*%
X80762446Y142614971D03*
X90922446Y142614971D03*
%TD*%
%TO.C,U49*%
X80762446Y157764971D03*
X90922446Y157764971D03*
%TD*%
%TO.C,U48*%
X65612446Y21414971D03*
X75772446Y21414971D03*
%TD*%
%TO.C,U47*%
X65612446Y36564971D03*
X75772446Y36564971D03*
%TD*%
%TO.C,U46*%
X65612446Y51714971D03*
X75772446Y51714971D03*
%TD*%
%TO.C,U45*%
X65612446Y66864971D03*
X75772446Y66864971D03*
%TD*%
%TO.C,U44*%
X65612446Y82014971D03*
X75772446Y82014971D03*
%TD*%
%TO.C,U43*%
X65612446Y97164971D03*
X75772446Y97164971D03*
%TD*%
%TO.C,U42*%
X65612446Y112314971D03*
X75772446Y112314971D03*
%TD*%
%TO.C,U41*%
X65612446Y127464971D03*
X75772446Y127464971D03*
%TD*%
%TO.C,U40*%
X65612446Y142614971D03*
X75772446Y142614971D03*
%TD*%
%TO.C,U39*%
X65612446Y157764971D03*
X75772446Y157764971D03*
%TD*%
%TO.C,U38*%
X50462446Y21414971D03*
X60622446Y21414971D03*
%TD*%
%TO.C,U37*%
X50462446Y36564971D03*
X60622446Y36564971D03*
%TD*%
%TO.C,U36*%
X50462446Y51714971D03*
X60622446Y51714971D03*
%TD*%
%TO.C,U35*%
X50462446Y66864971D03*
X60622446Y66864971D03*
%TD*%
%TO.C,U34*%
X50462446Y82014971D03*
X60622446Y82014971D03*
%TD*%
%TO.C,U33*%
X50462446Y97164971D03*
X60622446Y97164971D03*
%TD*%
%TO.C,U32*%
X50462446Y112314971D03*
X60622446Y112314971D03*
%TD*%
%TO.C,U31*%
X50462446Y127464971D03*
X60622446Y127464971D03*
%TD*%
%TO.C,U30*%
X50462446Y142614971D03*
X60622446Y142614971D03*
%TD*%
%TO.C,U29*%
X50462446Y157764971D03*
X60622446Y157764971D03*
%TD*%
%TO.C,U28*%
X35312446Y21414971D03*
X45472446Y21414971D03*
%TD*%
%TO.C,U27*%
X35312446Y36564971D03*
X45472446Y36564971D03*
%TD*%
%TO.C,U26*%
X35312446Y51714971D03*
X45472446Y51714971D03*
%TD*%
%TO.C,U25*%
X35312446Y66864971D03*
X45472446Y66864971D03*
%TD*%
%TO.C,U24*%
X35312446Y82014971D03*
X45472446Y82014971D03*
%TD*%
%TO.C,U23*%
X35312446Y97164971D03*
X45472446Y97164971D03*
%TD*%
%TO.C,U22*%
X35312446Y112314971D03*
X45472446Y112314971D03*
%TD*%
%TO.C,U21*%
X35312446Y127464971D03*
X45472446Y127464971D03*
%TD*%
%TO.C,U20*%
X35312446Y142614971D03*
X45472446Y142614971D03*
%TD*%
%TO.C,U19*%
X35312446Y157764971D03*
X45472446Y157764971D03*
%TD*%
%TO.C,U18*%
X20162446Y21414971D03*
X30322446Y21414971D03*
%TD*%
%TO.C,U17*%
X20162446Y36564971D03*
X30322446Y36564971D03*
%TD*%
%TO.C,U16*%
X20162446Y51714971D03*
X30322446Y51714971D03*
%TD*%
%TO.C,U15*%
X20162446Y66864971D03*
X30322446Y66864971D03*
%TD*%
%TO.C,U14*%
X20162446Y82014971D03*
X30322446Y82014971D03*
%TD*%
%TO.C,U13*%
X20162446Y97164971D03*
X30322446Y97164971D03*
%TD*%
%TO.C,U12*%
X20162446Y112314971D03*
X30322446Y112314971D03*
%TD*%
%TO.C,U11*%
X20162446Y127464971D03*
X30322446Y127464971D03*
%TD*%
%TO.C,U10*%
X20162446Y142614971D03*
X30322446Y142614971D03*
%TD*%
%TO.C,U9*%
X20162446Y157764971D03*
X30322446Y157764971D03*
%TD*%
D12*
%TO.C,U8*%
X140542446Y64419971D03*
X140542446Y63769971D03*
X140542446Y63119971D03*
X140542446Y62469971D03*
X140542446Y61819971D03*
X140542446Y61169971D03*
X140542446Y60519971D03*
X140542446Y59869971D03*
X140542446Y59219971D03*
X140542446Y58569971D03*
X140542446Y57919971D03*
X140542446Y57269971D03*
X147742446Y57269971D03*
X147742446Y57919971D03*
X147742446Y58569971D03*
X147742446Y59219971D03*
X147742446Y59869971D03*
X147742446Y60519971D03*
X147742446Y61169971D03*
X147742446Y61819971D03*
X147742446Y62469971D03*
X147742446Y63119971D03*
X147742446Y63769971D03*
X147742446Y64419971D03*
%TD*%
%TO.C,U7*%
X140542446Y74469971D03*
X140542446Y73819971D03*
X140542446Y73169971D03*
X140542446Y72519971D03*
X140542446Y71869971D03*
X140542446Y71219971D03*
X140542446Y70569971D03*
X140542446Y69919971D03*
X140542446Y69269971D03*
X140542446Y68619971D03*
X140542446Y67969971D03*
X140542446Y67319971D03*
X147742446Y67319971D03*
X147742446Y67969971D03*
X147742446Y68619971D03*
X147742446Y69269971D03*
X147742446Y69919971D03*
X147742446Y70569971D03*
X147742446Y71219971D03*
X147742446Y71869971D03*
X147742446Y72519971D03*
X147742446Y73169971D03*
X147742446Y73819971D03*
X147742446Y74469971D03*
%TD*%
%TO.C,U6*%
X140542446Y84519971D03*
X140542446Y83869971D03*
X140542446Y83219971D03*
X140542446Y82569971D03*
X140542446Y81919971D03*
X140542446Y81269971D03*
X140542446Y80619971D03*
X140542446Y79969971D03*
X140542446Y79319971D03*
X140542446Y78669971D03*
X140542446Y78019971D03*
X140542446Y77369971D03*
X147742446Y77369971D03*
X147742446Y78019971D03*
X147742446Y78669971D03*
X147742446Y79319971D03*
X147742446Y79969971D03*
X147742446Y80619971D03*
X147742446Y81269971D03*
X147742446Y81919971D03*
X147742446Y82569971D03*
X147742446Y83219971D03*
X147742446Y83869971D03*
X147742446Y84519971D03*
%TD*%
%TO.C,U5*%
X140542446Y94569971D03*
X140542446Y93919971D03*
X140542446Y93269971D03*
X140542446Y92619971D03*
X140542446Y91969971D03*
X140542446Y91319971D03*
X140542446Y90669971D03*
X140542446Y90019971D03*
X140542446Y89369971D03*
X140542446Y88719971D03*
X140542446Y88069971D03*
X140542446Y87419971D03*
X147742446Y87419971D03*
X147742446Y88069971D03*
X147742446Y88719971D03*
X147742446Y89369971D03*
X147742446Y90019971D03*
X147742446Y90669971D03*
X147742446Y91319971D03*
X147742446Y91969971D03*
X147742446Y92619971D03*
X147742446Y93269971D03*
X147742446Y93919971D03*
X147742446Y94569971D03*
%TD*%
%TO.C,U4*%
X140542446Y104619971D03*
X140542446Y103969971D03*
X140542446Y103319971D03*
X140542446Y102669971D03*
X140542446Y102019971D03*
X140542446Y101369971D03*
X140542446Y100719971D03*
X140542446Y100069971D03*
X140542446Y99419971D03*
X140542446Y98769971D03*
X140542446Y98119971D03*
X140542446Y97469971D03*
X147742446Y97469971D03*
X147742446Y98119971D03*
X147742446Y98769971D03*
X147742446Y99419971D03*
X147742446Y100069971D03*
X147742446Y100719971D03*
X147742446Y101369971D03*
X147742446Y102019971D03*
X147742446Y102669971D03*
X147742446Y103319971D03*
X147742446Y103969971D03*
X147742446Y104619971D03*
%TD*%
D13*
%TO.C,U3*%
X160404946Y63114971D03*
X160404946Y61214971D03*
X162679946Y62164971D03*
%TD*%
%TO.C,U2*%
X160404946Y67739971D03*
X160404946Y66789971D03*
X160404946Y65839971D03*
X162679946Y65839971D03*
X162679946Y66789971D03*
X162679946Y67739971D03*
%TD*%
D14*
%TO.C,U1*%
X150929946Y77614971D03*
X150929946Y77114971D03*
X150929946Y76614971D03*
X150929946Y76114971D03*
X150929946Y75614971D03*
X150929946Y75114971D03*
X150929946Y74614971D03*
X150929946Y74114971D03*
X150929946Y73614971D03*
X150929946Y73114971D03*
X150929946Y72614971D03*
X150929946Y72114971D03*
D15*
X152342446Y70702471D03*
X152842446Y70702471D03*
X153342446Y70702471D03*
X153842446Y70702471D03*
X154342446Y70702471D03*
X154842446Y70702471D03*
X155342446Y70702471D03*
X155842446Y70702471D03*
X156342446Y70702471D03*
X156842446Y70702471D03*
X157342446Y70702471D03*
X157842446Y70702471D03*
D14*
X159254946Y72114971D03*
X159254946Y72614971D03*
X159254946Y73114971D03*
X159254946Y73614971D03*
X159254946Y74114971D03*
X159254946Y74614971D03*
X159254946Y75114971D03*
X159254946Y75614971D03*
X159254946Y76114971D03*
X159254946Y76614971D03*
X159254946Y77114971D03*
X159254946Y77614971D03*
D15*
X157842446Y79027471D03*
X157342446Y79027471D03*
X156842446Y79027471D03*
X156342446Y79027471D03*
X155842446Y79027471D03*
X155342446Y79027471D03*
X154842446Y79027471D03*
X154342446Y79027471D03*
X153842446Y79027471D03*
X153342446Y79027471D03*
X152842446Y79027471D03*
X152342446Y79027471D03*
%TD*%
D16*
%TO.C,SW1*%
X151042446Y67564971D03*
X157342446Y67564971D03*
X151042446Y63764971D03*
X157342446Y63764971D03*
%TD*%
D17*
%TO.C,Stabilizer3*%
X141361346Y123330271D03*
D18*
X141361346Y108090271D03*
D17*
X165237346Y123330271D03*
D18*
X165237346Y108090271D03*
%TD*%
D17*
%TO.C,Stabilizer2*%
X141361346Y143088171D03*
D18*
X141361346Y127848171D03*
D17*
X165237346Y143088171D03*
D18*
X165237346Y127848171D03*
%TD*%
D17*
%TO.C,Stabilizer1*%
X141361346Y162846071D03*
D18*
X141361346Y147606071D03*
D17*
X165237346Y162846071D03*
D18*
X165237346Y147606071D03*
%TD*%
D19*
%TO.C,R4*%
X165062446Y62224971D03*
X166082446Y62224971D03*
%TD*%
%TO.C,R3*%
X165062446Y64214971D03*
X166082446Y64214971D03*
%TD*%
%TO.C,R2*%
X165062446Y66204971D03*
X166082446Y66204971D03*
%TD*%
%TO.C,R1*%
X165062446Y68194971D03*
X166082446Y68194971D03*
%TD*%
D20*
%TO.C,J1*%
X152372446Y87814971D03*
X158152446Y87814971D03*
D21*
X152012446Y89259971D03*
X152812446Y89259971D03*
D22*
X154012446Y89259971D03*
X155012446Y89259971D03*
X155512446Y89259971D03*
X156512446Y89259971D03*
D21*
X157712446Y89259971D03*
X158512446Y89259971D03*
X158512446Y89259971D03*
X157712446Y89259971D03*
D22*
X157012446Y89259971D03*
X156012446Y89259971D03*
X154512446Y89259971D03*
X153512446Y89259971D03*
D21*
X152812446Y89259971D03*
X152012446Y89259971D03*
D23*
X150942446Y88344971D03*
D24*
X150942446Y84164971D03*
D23*
X159582446Y88344971D03*
D24*
X159582446Y84164971D03*
%TD*%
D25*
%TO.C,H1*%
X161012446Y102494971D03*
D26*
X161012446Y102494971D03*
%TD*%
D27*
%TO.C,FB2*%
X164259946Y94794971D03*
X166384946Y94794971D03*
%TD*%
%TO.C,FB1*%
X164259946Y97544971D03*
X166384946Y97544971D03*
%TD*%
D28*
%TO.C,F1*%
X158842446Y97274971D03*
X161642446Y97274971D03*
%TD*%
D29*
%TO.C,D1*%
X160087446Y58714971D03*
X161487446Y58714971D03*
%TD*%
D30*
%TO.C,C13*%
X165542446Y103114971D03*
X166502446Y103114971D03*
%TD*%
%TO.C,C12*%
X165542446Y105084971D03*
X166502446Y105084971D03*
%TD*%
D31*
%TO.C,C11*%
X154657446Y94774971D03*
X156207446Y94774971D03*
%TD*%
%TO.C,C10*%
X154657446Y97284971D03*
X156207446Y97284971D03*
%TD*%
%TO.C,C9*%
X154657446Y99794971D03*
X156207446Y99794971D03*
%TD*%
%TO.C,C8*%
X154657446Y102304971D03*
X156207446Y102304971D03*
%TD*%
%TO.C,C7*%
X154657446Y104814971D03*
X156207446Y104814971D03*
%TD*%
%TO.C,C6*%
X150647446Y92264971D03*
X152197446Y92264971D03*
%TD*%
%TO.C,C5*%
X150647446Y94774971D03*
X152197446Y94774971D03*
%TD*%
%TO.C,C4*%
X150647446Y97284971D03*
X152197446Y97284971D03*
%TD*%
%TO.C,C3*%
X150647446Y99794971D03*
X152197446Y99794971D03*
%TD*%
%TO.C,C2*%
X150647446Y102304971D03*
X152197446Y102304971D03*
%TD*%
%TO.C,C1*%
X150647446Y104814971D03*
X152197446Y104814971D03*
%TD*%
M02*
