%TF.GenerationSoftware,KiCad,Pcbnew,8.0.7*%
%TF.CreationDate,2024-12-29T17:24:51-05:00*%
%TF.ProjectId,HE75,48453735-2e6b-4696-9361-645f70636258,2.0.0*%
%TF.SameCoordinates,Original*%
%TF.FileFunction,Paste,Bot*%
%TF.FilePolarity,Positive*%
%FSLAX46Y46*%
G04 Gerber Fmt 4.6, Leading zero omitted, Abs format (unit mm)*
G04 Created by KiCad (PCBNEW 8.0.7) date 2024-12-29 17:24:51*
%MOMM*%
%LPD*%
G01*
G04 APERTURE LIST*
G04 Aperture macros list*
%AMRoundRect*
0 Rectangle with rounded corners*
0 $1 Rounding radius*
0 $2 $3 $4 $5 $6 $7 $8 $9 X,Y pos of 4 corners*
0 Add a 4 corners polygon primitive as box body*
4,1,4,$2,$3,$4,$5,$6,$7,$8,$9,$2,$3,0*
0 Add four circle primitives for the rounded corners*
1,1,$1+$1,$2,$3*
1,1,$1+$1,$4,$5*
1,1,$1+$1,$6,$7*
1,1,$1+$1,$8,$9*
0 Add four rect primitives between the rounded corners*
20,1,$1+$1,$2,$3,$4,$5,0*
20,1,$1+$1,$4,$5,$6,$7,0*
20,1,$1+$1,$6,$7,$8,$9,0*
20,1,$1+$1,$8,$9,$2,$3,0*%
G04 Aperture macros list end*
%ADD10RoundRect,0.150000X0.150000X-0.587500X0.150000X0.587500X-0.150000X0.587500X-0.150000X-0.587500X0*%
G04 APERTURE END LIST*
D10*
%TO.C,U82*%
X130342446Y113264971D03*
X131292446Y111364971D03*
X132242446Y113264971D03*
%TD*%
%TO.C,U81*%
X130342446Y128414971D03*
X131292446Y126514971D03*
X132242446Y128414971D03*
%TD*%
%TO.C,U80*%
X130342446Y143564971D03*
X131292446Y141664971D03*
X132242446Y143564971D03*
%TD*%
%TO.C,U79*%
X130342446Y158714971D03*
X131292446Y156814971D03*
X132242446Y158714971D03*
%TD*%
%TO.C,U78*%
X115192446Y22364971D03*
X116142446Y20464971D03*
X117092446Y22364971D03*
%TD*%
%TO.C,U77*%
X115192446Y37514971D03*
X116142446Y35614971D03*
X117092446Y37514971D03*
%TD*%
%TO.C,U76*%
X115192446Y52664971D03*
X116142446Y50764971D03*
X117092446Y52664971D03*
%TD*%
%TO.C,U75*%
X115192446Y67814971D03*
X116142446Y65914971D03*
X117092446Y67814971D03*
%TD*%
%TO.C,U74*%
X115192446Y82964971D03*
X116142446Y81064971D03*
X117092446Y82964971D03*
%TD*%
%TO.C,U73*%
X115192446Y98114971D03*
X116142446Y96214971D03*
X117092446Y98114971D03*
%TD*%
%TO.C,U72*%
X115192446Y113264971D03*
X116142446Y111364971D03*
X117092446Y113264971D03*
%TD*%
%TO.C,U71*%
X115192446Y128414971D03*
X116142446Y126514971D03*
X117092446Y128414971D03*
%TD*%
%TO.C,U70*%
X115192446Y143564971D03*
X116142446Y141664971D03*
X117092446Y143564971D03*
%TD*%
%TO.C,U69*%
X115192446Y158714971D03*
X116142446Y156814971D03*
X117092446Y158714971D03*
%TD*%
%TO.C,U68*%
X100042446Y22364971D03*
X100992446Y20464971D03*
X101942446Y22364971D03*
%TD*%
%TO.C,U67*%
X100042446Y37514971D03*
X100992446Y35614971D03*
X101942446Y37514971D03*
%TD*%
%TO.C,U66*%
X100042446Y52664971D03*
X100992446Y50764971D03*
X101942446Y52664971D03*
%TD*%
%TO.C,U65*%
X100042446Y67814971D03*
X100992446Y65914971D03*
X101942446Y67814971D03*
%TD*%
%TO.C,U64*%
X100042446Y82964971D03*
X100992446Y81064971D03*
X101942446Y82964971D03*
%TD*%
%TO.C,U63*%
X100042446Y98114971D03*
X100992446Y96214971D03*
X101942446Y98114971D03*
%TD*%
%TO.C,U62*%
X100042446Y113264971D03*
X100992446Y111364971D03*
X101942446Y113264971D03*
%TD*%
%TO.C,U61*%
X100042446Y128414971D03*
X100992446Y126514971D03*
X101942446Y128414971D03*
%TD*%
%TO.C,U60*%
X100042446Y143564971D03*
X100992446Y141664971D03*
X101942446Y143564971D03*
%TD*%
%TO.C,U59*%
X100042446Y158714971D03*
X100992446Y156814971D03*
X101942446Y158714971D03*
%TD*%
%TO.C,U58*%
X84892446Y22364971D03*
X85842446Y20464971D03*
X86792446Y22364971D03*
%TD*%
%TO.C,U57*%
X84892446Y37514971D03*
X85842446Y35614971D03*
X86792446Y37514971D03*
%TD*%
%TO.C,U56*%
X84892446Y52664971D03*
X85842446Y50764971D03*
X86792446Y52664971D03*
%TD*%
%TO.C,U55*%
X84892446Y67814971D03*
X85842446Y65914971D03*
X86792446Y67814971D03*
%TD*%
%TO.C,U54*%
X84892446Y82964971D03*
X85842446Y81064971D03*
X86792446Y82964971D03*
%TD*%
%TO.C,U53*%
X84892446Y98114971D03*
X85842446Y96214971D03*
X86792446Y98114971D03*
%TD*%
%TO.C,U52*%
X84892446Y113264971D03*
X85842446Y111364971D03*
X86792446Y113264971D03*
%TD*%
%TO.C,U51*%
X84892446Y128414971D03*
X85842446Y126514971D03*
X86792446Y128414971D03*
%TD*%
%TO.C,U50*%
X84892446Y143564971D03*
X85842446Y141664971D03*
X86792446Y143564971D03*
%TD*%
%TO.C,U49*%
X84892446Y158714971D03*
X85842446Y156814971D03*
X86792446Y158714971D03*
%TD*%
%TO.C,U48*%
X69742446Y22364971D03*
X70692446Y20464971D03*
X71642446Y22364971D03*
%TD*%
%TO.C,U47*%
X69742446Y37514971D03*
X70692446Y35614971D03*
X71642446Y37514971D03*
%TD*%
%TO.C,U46*%
X69742446Y52664971D03*
X70692446Y50764971D03*
X71642446Y52664971D03*
%TD*%
%TO.C,U45*%
X69742446Y67814971D03*
X70692446Y65914971D03*
X71642446Y67814971D03*
%TD*%
%TO.C,U44*%
X69742446Y82964971D03*
X70692446Y81064971D03*
X71642446Y82964971D03*
%TD*%
%TO.C,U43*%
X69742446Y98114971D03*
X70692446Y96214971D03*
X71642446Y98114971D03*
%TD*%
%TO.C,U42*%
X69742446Y113264971D03*
X70692446Y111364971D03*
X71642446Y113264971D03*
%TD*%
%TO.C,U41*%
X69742446Y128414971D03*
X70692446Y126514971D03*
X71642446Y128414971D03*
%TD*%
%TO.C,U40*%
X69742446Y143564971D03*
X70692446Y141664971D03*
X71642446Y143564971D03*
%TD*%
%TO.C,U39*%
X69742446Y158714971D03*
X70692446Y156814971D03*
X71642446Y158714971D03*
%TD*%
%TO.C,U38*%
X54592446Y22364971D03*
X55542446Y20464971D03*
X56492446Y22364971D03*
%TD*%
%TO.C,U37*%
X54592446Y37514971D03*
X55542446Y35614971D03*
X56492446Y37514971D03*
%TD*%
%TO.C,U36*%
X54592446Y52664971D03*
X55542446Y50764971D03*
X56492446Y52664971D03*
%TD*%
%TO.C,U35*%
X54592446Y67814971D03*
X55542446Y65914971D03*
X56492446Y67814971D03*
%TD*%
%TO.C,U34*%
X54592446Y82964971D03*
X55542446Y81064971D03*
X56492446Y82964971D03*
%TD*%
%TO.C,U33*%
X54592446Y98114971D03*
X55542446Y96214971D03*
X56492446Y98114971D03*
%TD*%
%TO.C,U32*%
X54592446Y113264971D03*
X55542446Y111364971D03*
X56492446Y113264971D03*
%TD*%
%TO.C,U31*%
X54592446Y128414971D03*
X55542446Y126514971D03*
X56492446Y128414971D03*
%TD*%
%TO.C,U30*%
X54592446Y143564971D03*
X55542446Y141664971D03*
X56492446Y143564971D03*
%TD*%
%TO.C,U29*%
X54592446Y158714971D03*
X55542446Y156814971D03*
X56492446Y158714971D03*
%TD*%
%TO.C,U28*%
X39442446Y22364971D03*
X40392446Y20464971D03*
X41342446Y22364971D03*
%TD*%
%TO.C,U27*%
X39442446Y37514971D03*
X40392446Y35614971D03*
X41342446Y37514971D03*
%TD*%
%TO.C,U26*%
X39442446Y52664971D03*
X40392446Y50764971D03*
X41342446Y52664971D03*
%TD*%
%TO.C,U25*%
X39442446Y67814971D03*
X40392446Y65914971D03*
X41342446Y67814971D03*
%TD*%
%TO.C,U24*%
X39442446Y82964971D03*
X40392446Y81064971D03*
X41342446Y82964971D03*
%TD*%
%TO.C,U23*%
X39442446Y98114971D03*
X40392446Y96214971D03*
X41342446Y98114971D03*
%TD*%
%TO.C,U22*%
X39442446Y113264971D03*
X40392446Y111364971D03*
X41342446Y113264971D03*
%TD*%
%TO.C,U21*%
X39442446Y128414971D03*
X40392446Y126514971D03*
X41342446Y128414971D03*
%TD*%
%TO.C,U20*%
X39442446Y143564971D03*
X40392446Y141664971D03*
X41342446Y143564971D03*
%TD*%
%TO.C,U19*%
X39442446Y158714971D03*
X40392446Y156814971D03*
X41342446Y158714971D03*
%TD*%
%TO.C,U18*%
X24292446Y22364971D03*
X25242446Y20464971D03*
X26192446Y22364971D03*
%TD*%
%TO.C,U17*%
X24292446Y37514971D03*
X25242446Y35614971D03*
X26192446Y37514971D03*
%TD*%
%TO.C,U16*%
X24292446Y52664971D03*
X25242446Y50764971D03*
X26192446Y52664971D03*
%TD*%
%TO.C,U15*%
X24292446Y67814971D03*
X25242446Y65914971D03*
X26192446Y67814971D03*
%TD*%
%TO.C,U14*%
X24292446Y82964971D03*
X25242446Y81064971D03*
X26192446Y82964971D03*
%TD*%
%TO.C,U13*%
X24292446Y98114971D03*
X25242446Y96214971D03*
X26192446Y98114971D03*
%TD*%
%TO.C,U12*%
X24292446Y113264971D03*
X25242446Y111364971D03*
X26192446Y113264971D03*
%TD*%
%TO.C,U11*%
X24292446Y128414971D03*
X25242446Y126514971D03*
X26192446Y128414971D03*
%TD*%
%TO.C,U10*%
X24292446Y143564971D03*
X25242446Y141664971D03*
X26192446Y143564971D03*
%TD*%
%TO.C,U9*%
X24292446Y158714971D03*
X25242446Y156814971D03*
X26192446Y158714971D03*
%TD*%
M02*
