%TF.GenerationSoftware,KiCad,Pcbnew,8.0.7*%
%TF.CreationDate,2024-12-29T17:24:51-05:00*%
%TF.ProjectId,HE75,48453735-2e6b-4696-9361-645f70636258,2.0.0*%
%TF.SameCoordinates,Original*%
%TF.FileFunction,Copper,L4,Bot*%
%TF.FilePolarity,Positive*%
%FSLAX46Y46*%
G04 Gerber Fmt 4.6, Leading zero omitted, Abs format (unit mm)*
G04 Created by KiCad (PCBNEW 8.0.7) date 2024-12-29 17:24:51*
%MOMM*%
%LPD*%
G01*
G04 APERTURE LIST*
G04 Aperture macros list*
%AMRoundRect*
0 Rectangle with rounded corners*
0 $1 Rounding radius*
0 $2 $3 $4 $5 $6 $7 $8 $9 X,Y pos of 4 corners*
0 Add a 4 corners polygon primitive as box body*
4,1,4,$2,$3,$4,$5,$6,$7,$8,$9,$2,$3,0*
0 Add four circle primitives for the rounded corners*
1,1,$1+$1,$2,$3*
1,1,$1+$1,$4,$5*
1,1,$1+$1,$6,$7*
1,1,$1+$1,$8,$9*
0 Add four rect primitives between the rounded corners*
20,1,$1+$1,$2,$3,$4,$5,0*
20,1,$1+$1,$4,$5,$6,$7,0*
20,1,$1+$1,$6,$7,$8,$9,0*
20,1,$1+$1,$8,$9,$2,$3,0*%
G04 Aperture macros list end*
%TA.AperFunction,SMDPad,CuDef*%
%ADD10RoundRect,0.150000X0.150000X-0.587500X0.150000X0.587500X-0.150000X0.587500X-0.150000X-0.587500X0*%
%TD*%
%TA.AperFunction,ComponentPad*%
%ADD11O,1.000000X2.100000*%
%TD*%
%TA.AperFunction,ComponentPad*%
%ADD12O,1.000000X1.600000*%
%TD*%
%TA.AperFunction,ComponentPad*%
%ADD13C,3.600000*%
%TD*%
%TA.AperFunction,ConnectorPad*%
%ADD14C,5.600000*%
%TD*%
G04 APERTURE END LIST*
D10*
%TO.P,U82,1,VCC*%
%TO.N,+3.3VA*%
X130342446Y113264971D03*
%TO.P,U82,2,OUTPUT*%
%TO.N,/AM2:12*%
X131292446Y111364971D03*
%TO.P,U82,3,GND*%
%TO.N,GND*%
X132242446Y113264971D03*
%TD*%
%TO.P,U81,1,VCC*%
%TO.N,+3.3VA*%
X130342446Y128414971D03*
%TO.P,U81,2,OUTPUT*%
%TO.N,/AM2:13*%
X131292446Y126514971D03*
%TO.P,U81,3,GND*%
%TO.N,GND*%
X132242446Y128414971D03*
%TD*%
%TO.P,U80,1,VCC*%
%TO.N,+3.3VA*%
X130342446Y143564971D03*
%TO.P,U80,2,OUTPUT*%
%TO.N,/AM1:14*%
X131292446Y141664971D03*
%TO.P,U80,3,GND*%
%TO.N,GND*%
X132242446Y143564971D03*
%TD*%
%TO.P,U79,1,VCC*%
%TO.N,+3.3VA*%
X130342446Y158714971D03*
%TO.P,U79,2,OUTPUT*%
%TO.N,/AM4:15*%
X131292446Y156814971D03*
%TO.P,U79,3,GND*%
%TO.N,GND*%
X132242446Y158714971D03*
%TD*%
%TO.P,U78,1,VCC*%
%TO.N,+3.3VA*%
X115192446Y22364971D03*
%TO.P,U78,2,OUTPUT*%
%TO.N,/AM4:14*%
X116142446Y20464971D03*
%TO.P,U78,3,GND*%
%TO.N,GND*%
X117092446Y22364971D03*
%TD*%
%TO.P,U77,1,VCC*%
%TO.N,+3.3VA*%
X115192446Y37514971D03*
%TO.P,U77,2,OUTPUT*%
%TO.N,/AM4:13*%
X116142446Y35614971D03*
%TO.P,U77,3,GND*%
%TO.N,GND*%
X117092446Y37514971D03*
%TD*%
%TO.P,U76,1,VCC*%
%TO.N,+3.3VA*%
X115192446Y52664971D03*
%TO.P,U76,2,OUTPUT*%
%TO.N,/AM4:12*%
X116142446Y50764971D03*
%TO.P,U76,3,GND*%
%TO.N,GND*%
X117092446Y52664971D03*
%TD*%
%TO.P,U75,1,VCC*%
%TO.N,+3.3VA*%
X115192446Y67814971D03*
%TO.P,U75,2,OUTPUT*%
%TO.N,/AM3:14*%
X116142446Y65914971D03*
%TO.P,U75,3,GND*%
%TO.N,GND*%
X117092446Y67814971D03*
%TD*%
%TO.P,U74,1,VCC*%
%TO.N,+3.3VA*%
X115192446Y82964971D03*
%TO.P,U74,2,OUTPUT*%
%TO.N,/AM3:13*%
X116142446Y81064971D03*
%TO.P,U74,3,GND*%
%TO.N,GND*%
X117092446Y82964971D03*
%TD*%
%TO.P,U73,1,VCC*%
%TO.N,+3.3VA*%
X115192446Y98114971D03*
%TO.P,U73,2,OUTPUT*%
%TO.N,/AM3:12*%
X116142446Y96214971D03*
%TO.P,U73,3,GND*%
%TO.N,GND*%
X117092446Y98114971D03*
%TD*%
%TO.P,U72,1,VCC*%
%TO.N,+3.3VA*%
X115192446Y113264971D03*
%TO.P,U72,2,OUTPUT*%
%TO.N,/AM2:14*%
X116142446Y111364971D03*
%TO.P,U72,3,GND*%
%TO.N,GND*%
X117092446Y113264971D03*
%TD*%
%TO.P,U71,1,VCC*%
%TO.N,+3.3VA*%
X115192446Y128414971D03*
%TO.P,U71,2,OUTPUT*%
%TO.N,/AM2:13*%
X116142446Y126514971D03*
%TO.P,U71,3,GND*%
%TO.N,GND*%
X117092446Y128414971D03*
%TD*%
%TO.P,U70,1,VCC*%
%TO.N,+3.3VA*%
X115192446Y143564971D03*
%TO.P,U70,2,OUTPUT*%
%TO.N,/AM2:12*%
X116142446Y141664971D03*
%TO.P,U70,3,GND*%
%TO.N,GND*%
X117092446Y143564971D03*
%TD*%
%TO.P,U69,1,VCC*%
%TO.N,+3.3VA*%
X115192446Y158714971D03*
%TO.P,U69,2,OUTPUT*%
%TO.N,/AM1:14*%
X116142446Y156814971D03*
%TO.P,U69,3,GND*%
%TO.N,GND*%
X117092446Y158714971D03*
%TD*%
%TO.P,U68,1,VCC*%
%TO.N,+3.3VA*%
X100042446Y22364971D03*
%TO.P,U68,2,OUTPUT*%
%TO.N,/AM1:13*%
X100992446Y20464971D03*
%TO.P,U68,3,GND*%
%TO.N,GND*%
X101942446Y22364971D03*
%TD*%
%TO.P,U67,1,VCC*%
%TO.N,+3.3VA*%
X100042446Y37514971D03*
%TO.P,U67,2,OUTPUT*%
%TO.N,/AM1:12*%
X100992446Y35614971D03*
%TO.P,U67,3,GND*%
%TO.N,GND*%
X101942446Y37514971D03*
%TD*%
%TO.P,U66,1,VCC*%
%TO.N,+3.3VA*%
X100042446Y52664971D03*
%TO.P,U66,2,OUTPUT*%
%TO.N,/AM0:14*%
X100992446Y50764971D03*
%TO.P,U66,3,GND*%
%TO.N,GND*%
X101942446Y52664971D03*
%TD*%
%TO.P,U65,1,VCC*%
%TO.N,+3.3VA*%
X100042446Y67814971D03*
%TO.P,U65,2,OUTPUT*%
%TO.N,/AM0:12*%
X100992446Y65914971D03*
%TO.P,U65,3,GND*%
%TO.N,GND*%
X101942446Y67814971D03*
%TD*%
%TO.P,U64,1,VCC*%
%TO.N,+3.3VA*%
X100042446Y82964971D03*
%TO.P,U64,2,OUTPUT*%
%TO.N,/AM4:11*%
X100992446Y81064971D03*
%TO.P,U64,3,GND*%
%TO.N,GND*%
X101942446Y82964971D03*
%TD*%
%TO.P,U63,1,VCC*%
%TO.N,+3.3VA*%
X100042446Y98114971D03*
%TO.P,U63,2,OUTPUT*%
%TO.N,/AM4:10*%
X100992446Y96214971D03*
%TO.P,U63,3,GND*%
%TO.N,GND*%
X101942446Y98114971D03*
%TD*%
%TO.P,U62,1,VCC*%
%TO.N,+3.3VA*%
X100042446Y113264971D03*
%TO.P,U62,2,OUTPUT*%
%TO.N,/AM4:09*%
X100992446Y111364971D03*
%TO.P,U62,3,GND*%
%TO.N,GND*%
X101942446Y113264971D03*
%TD*%
%TO.P,U61,1,VCC*%
%TO.N,+3.3VA*%
X100042446Y128414971D03*
%TO.P,U61,2,OUTPUT*%
%TO.N,/AM3:11*%
X100992446Y126514971D03*
%TO.P,U61,3,GND*%
%TO.N,GND*%
X101942446Y128414971D03*
%TD*%
%TO.P,U60,1,VCC*%
%TO.N,+3.3VA*%
X100042446Y143564971D03*
%TO.P,U60,2,OUTPUT*%
%TO.N,/AM3:10*%
X100992446Y141664971D03*
%TO.P,U60,3,GND*%
%TO.N,GND*%
X101942446Y143564971D03*
%TD*%
%TO.P,U59,1,VCC*%
%TO.N,+3.3VA*%
X100042446Y158714971D03*
%TO.P,U59,2,OUTPUT*%
%TO.N,/AM3:09*%
X100992446Y156814971D03*
%TO.P,U59,3,GND*%
%TO.N,GND*%
X101942446Y158714971D03*
%TD*%
%TO.P,U58,1,VCC*%
%TO.N,+3.3VA*%
X84892446Y22364971D03*
%TO.P,U58,2,OUTPUT*%
%TO.N,/AM2:11*%
X85842446Y20464971D03*
%TO.P,U58,3,GND*%
%TO.N,GND*%
X86792446Y22364971D03*
%TD*%
%TO.P,U57,1,VCC*%
%TO.N,+3.3VA*%
X84892446Y37514971D03*
%TO.P,U57,2,OUTPUT*%
%TO.N,/AM2:10*%
X85842446Y35614971D03*
%TO.P,U57,3,GND*%
%TO.N,GND*%
X86792446Y37514971D03*
%TD*%
%TO.P,U56,1,VCC*%
%TO.N,+3.3VA*%
X84892446Y52664971D03*
%TO.P,U56,2,OUTPUT*%
%TO.N,/AM2:09*%
X85842446Y50764971D03*
%TO.P,U56,3,GND*%
%TO.N,GND*%
X86792446Y52664971D03*
%TD*%
%TO.P,U55,1,VCC*%
%TO.N,+3.3VA*%
X84892446Y67814971D03*
%TO.P,U55,2,OUTPUT*%
%TO.N,/AM1:11*%
X85842446Y65914971D03*
%TO.P,U55,3,GND*%
%TO.N,GND*%
X86792446Y67814971D03*
%TD*%
%TO.P,U54,1,VCC*%
%TO.N,+3.3VA*%
X84892446Y82964971D03*
%TO.P,U54,2,OUTPUT*%
%TO.N,/AM1:10*%
X85842446Y81064971D03*
%TO.P,U54,3,GND*%
%TO.N,GND*%
X86792446Y82964971D03*
%TD*%
%TO.P,U53,1,VCC*%
%TO.N,+3.3VA*%
X84892446Y98114971D03*
%TO.P,U53,2,OUTPUT*%
%TO.N,/AM1:09*%
X85842446Y96214971D03*
%TO.P,U53,3,GND*%
%TO.N,GND*%
X86792446Y98114971D03*
%TD*%
%TO.P,U52,1,VCC*%
%TO.N,+3.3VA*%
X84892446Y113264971D03*
%TO.P,U52,2,OUTPUT*%
%TO.N,/AM0:11*%
X85842446Y111364971D03*
%TO.P,U52,3,GND*%
%TO.N,GND*%
X86792446Y113264971D03*
%TD*%
%TO.P,U51,1,VCC*%
%TO.N,+3.3VA*%
X84892446Y128414971D03*
%TO.P,U51,2,OUTPUT*%
%TO.N,/AM0:09*%
X85842446Y126514971D03*
%TO.P,U51,3,GND*%
%TO.N,GND*%
X86792446Y128414971D03*
%TD*%
%TO.P,U50,1,VCC*%
%TO.N,+3.3VA*%
X84892446Y143564971D03*
%TO.P,U50,2,OUTPUT*%
%TO.N,/AM4:08*%
X85842446Y141664971D03*
%TO.P,U50,3,GND*%
%TO.N,GND*%
X86792446Y143564971D03*
%TD*%
%TO.P,U49,1,VCC*%
%TO.N,+3.3VA*%
X84892446Y158714971D03*
%TO.P,U49,2,OUTPUT*%
%TO.N,/AM4:07*%
X85842446Y156814971D03*
%TO.P,U49,3,GND*%
%TO.N,GND*%
X86792446Y158714971D03*
%TD*%
%TO.P,U48,1,VCC*%
%TO.N,+3.3VA*%
X69742446Y22364971D03*
%TO.P,U48,2,OUTPUT*%
%TO.N,/AM4:06*%
X70692446Y20464971D03*
%TO.P,U48,3,GND*%
%TO.N,GND*%
X71642446Y22364971D03*
%TD*%
%TO.P,U47,1,VCC*%
%TO.N,+3.3VA*%
X69742446Y37514971D03*
%TO.P,U47,2,OUTPUT*%
%TO.N,/AM3:08*%
X70692446Y35614971D03*
%TO.P,U47,3,GND*%
%TO.N,GND*%
X71642446Y37514971D03*
%TD*%
%TO.P,U46,1,VCC*%
%TO.N,+3.3VA*%
X69742446Y52664971D03*
%TO.P,U46,2,OUTPUT*%
%TO.N,/AM3:07*%
X70692446Y50764971D03*
%TO.P,U46,3,GND*%
%TO.N,GND*%
X71642446Y52664971D03*
%TD*%
%TO.P,U45,1,VCC*%
%TO.N,+3.3VA*%
X69742446Y67814971D03*
%TO.P,U45,2,OUTPUT*%
%TO.N,/AM3:06*%
X70692446Y65914971D03*
%TO.P,U45,3,GND*%
%TO.N,GND*%
X71642446Y67814971D03*
%TD*%
%TO.P,U44,1,VCC*%
%TO.N,+3.3VA*%
X69742446Y82964971D03*
%TO.P,U44,2,OUTPUT*%
%TO.N,/AM2:08*%
X70692446Y81064971D03*
%TO.P,U44,3,GND*%
%TO.N,GND*%
X71642446Y82964971D03*
%TD*%
%TO.P,U43,1,VCC*%
%TO.N,+3.3VA*%
X69742446Y98114971D03*
%TO.P,U43,2,OUTPUT*%
%TO.N,/AM2:07*%
X70692446Y96214971D03*
%TO.P,U43,3,GND*%
%TO.N,GND*%
X71642446Y98114971D03*
%TD*%
%TO.P,U42,1,VCC*%
%TO.N,+3.3VA*%
X69742446Y113264971D03*
%TO.P,U42,2,OUTPUT*%
%TO.N,/AM2:06*%
X70692446Y111364971D03*
%TO.P,U42,3,GND*%
%TO.N,GND*%
X71642446Y113264971D03*
%TD*%
%TO.P,U41,1,VCC*%
%TO.N,+3.3VA*%
X69742446Y128414971D03*
%TO.P,U41,2,OUTPUT*%
%TO.N,/AM1:08*%
X70692446Y126514971D03*
%TO.P,U41,3,GND*%
%TO.N,GND*%
X71642446Y128414971D03*
%TD*%
%TO.P,U40,1,VCC*%
%TO.N,+3.3VA*%
X69742446Y143564971D03*
%TO.P,U40,2,OUTPUT*%
%TO.N,/AM1:07*%
X70692446Y141664971D03*
%TO.P,U40,3,GND*%
%TO.N,GND*%
X71642446Y143564971D03*
%TD*%
%TO.P,U39,1,VCC*%
%TO.N,+3.3VA*%
X69742446Y158714971D03*
%TO.P,U39,2,OUTPUT*%
%TO.N,/AM1:06*%
X70692446Y156814971D03*
%TO.P,U39,3,GND*%
%TO.N,GND*%
X71642446Y158714971D03*
%TD*%
%TO.P,U38,1,VCC*%
%TO.N,+3.3VA*%
X54592446Y22364971D03*
%TO.P,U38,2,OUTPUT*%
%TO.N,/AM0:08*%
X55542446Y20464971D03*
%TO.P,U38,3,GND*%
%TO.N,GND*%
X56492446Y22364971D03*
%TD*%
%TO.P,U37,1,VCC*%
%TO.N,+3.3VA*%
X54592446Y37514971D03*
%TO.P,U37,2,OUTPUT*%
%TO.N,/AM0:06*%
X55542446Y35614971D03*
%TO.P,U37,3,GND*%
%TO.N,GND*%
X56492446Y37514971D03*
%TD*%
%TO.P,U36,1,VCC*%
%TO.N,+3.3VA*%
X54592446Y52664971D03*
%TO.P,U36,2,OUTPUT*%
%TO.N,/AM4:05*%
X55542446Y50764971D03*
%TO.P,U36,3,GND*%
%TO.N,GND*%
X56492446Y52664971D03*
%TD*%
%TO.P,U35,1,VCC*%
%TO.N,+3.3VA*%
X54592446Y67814971D03*
%TO.P,U35,2,OUTPUT*%
%TO.N,/AM4:04*%
X55542446Y65914971D03*
%TO.P,U35,3,GND*%
%TO.N,GND*%
X56492446Y67814971D03*
%TD*%
%TO.P,U34,1,VCC*%
%TO.N,+3.3VA*%
X54592446Y82964971D03*
%TO.P,U34,2,OUTPUT*%
%TO.N,/AM4:03*%
X55542446Y81064971D03*
%TO.P,U34,3,GND*%
%TO.N,GND*%
X56492446Y82964971D03*
%TD*%
%TO.P,U33,1,VCC*%
%TO.N,+3.3VA*%
X54592446Y98114971D03*
%TO.P,U33,2,OUTPUT*%
%TO.N,/AM3:05*%
X55542446Y96214971D03*
%TO.P,U33,3,GND*%
%TO.N,GND*%
X56492446Y98114971D03*
%TD*%
%TO.P,U32,1,VCC*%
%TO.N,+3.3VA*%
X54592446Y113264971D03*
%TO.P,U32,2,OUTPUT*%
%TO.N,/AM3:04*%
X55542446Y111364971D03*
%TO.P,U32,3,GND*%
%TO.N,GND*%
X56492446Y113264971D03*
%TD*%
%TO.P,U31,1,VCC*%
%TO.N,+3.3VA*%
X54592446Y128414971D03*
%TO.P,U31,2,OUTPUT*%
%TO.N,/AM3:03*%
X55542446Y126514971D03*
%TO.P,U31,3,GND*%
%TO.N,GND*%
X56492446Y128414971D03*
%TD*%
%TO.P,U30,1,VCC*%
%TO.N,+3.3VA*%
X54592446Y143564971D03*
%TO.P,U30,2,OUTPUT*%
%TO.N,/AM2:05*%
X55542446Y141664971D03*
%TO.P,U30,3,GND*%
%TO.N,GND*%
X56492446Y143564971D03*
%TD*%
%TO.P,U29,1,VCC*%
%TO.N,+3.3VA*%
X54592446Y158714971D03*
%TO.P,U29,2,OUTPUT*%
%TO.N,/AM2:04*%
X55542446Y156814971D03*
%TO.P,U29,3,GND*%
%TO.N,GND*%
X56492446Y158714971D03*
%TD*%
%TO.P,U28,1,VCC*%
%TO.N,+3.3VA*%
X39442446Y22364971D03*
%TO.P,U28,2,OUTPUT*%
%TO.N,/AM2:03*%
X40392446Y20464971D03*
%TO.P,U28,3,GND*%
%TO.N,GND*%
X41342446Y22364971D03*
%TD*%
%TO.P,U27,1,VCC*%
%TO.N,+3.3VA*%
X39442446Y37514971D03*
%TO.P,U27,2,OUTPUT*%
%TO.N,/AM1:05*%
X40392446Y35614971D03*
%TO.P,U27,3,GND*%
%TO.N,GND*%
X41342446Y37514971D03*
%TD*%
%TO.P,U26,1,VCC*%
%TO.N,+3.3VA*%
X39442446Y52664971D03*
%TO.P,U26,2,OUTPUT*%
%TO.N,/AM1:04*%
X40392446Y50764971D03*
%TO.P,U26,3,GND*%
%TO.N,GND*%
X41342446Y52664971D03*
%TD*%
%TO.P,U25,1,VCC*%
%TO.N,+3.3VA*%
X39442446Y67814971D03*
%TO.P,U25,2,OUTPUT*%
%TO.N,/AM1:03*%
X40392446Y65914971D03*
%TO.P,U25,3,GND*%
%TO.N,GND*%
X41342446Y67814971D03*
%TD*%
%TO.P,U24,1,VCC*%
%TO.N,+3.3VA*%
X39442446Y82964971D03*
%TO.P,U24,2,OUTPUT*%
%TO.N,/AM0:05*%
X40392446Y81064971D03*
%TO.P,U24,3,GND*%
%TO.N,GND*%
X41342446Y82964971D03*
%TD*%
%TO.P,U23,1,VCC*%
%TO.N,+3.3VA*%
X39442446Y98114971D03*
%TO.P,U23,2,OUTPUT*%
%TO.N,/AM0:03*%
X40392446Y96214971D03*
%TO.P,U23,3,GND*%
%TO.N,GND*%
X41342446Y98114971D03*
%TD*%
%TO.P,U22,1,VCC*%
%TO.N,+3.3VA*%
X39442446Y113264971D03*
%TO.P,U22,2,OUTPUT*%
%TO.N,/AM4:02*%
X40392446Y111364971D03*
%TO.P,U22,3,GND*%
%TO.N,GND*%
X41342446Y113264971D03*
%TD*%
%TO.P,U21,1,VCC*%
%TO.N,+3.3VA*%
X39442446Y128414971D03*
%TO.P,U21,2,OUTPUT*%
%TO.N,/AM4:01*%
X40392446Y126514971D03*
%TO.P,U21,3,GND*%
%TO.N,GND*%
X41342446Y128414971D03*
%TD*%
%TO.P,U20,1,VCC*%
%TO.N,+3.3VA*%
X39442446Y143564971D03*
%TO.P,U20,2,OUTPUT*%
%TO.N,/AM4:00*%
X40392446Y141664971D03*
%TO.P,U20,3,GND*%
%TO.N,GND*%
X41342446Y143564971D03*
%TD*%
%TO.P,U19,1,VCC*%
%TO.N,+3.3VA*%
X39442446Y158714971D03*
%TO.P,U19,2,OUTPUT*%
%TO.N,/AM3:02*%
X40392446Y156814971D03*
%TO.P,U19,3,GND*%
%TO.N,GND*%
X41342446Y158714971D03*
%TD*%
%TO.P,U18,1,VCC*%
%TO.N,+3.3VA*%
X24292446Y22364971D03*
%TO.P,U18,2,OUTPUT*%
%TO.N,/AM3:01*%
X25242446Y20464971D03*
%TO.P,U18,3,GND*%
%TO.N,GND*%
X26192446Y22364971D03*
%TD*%
%TO.P,U17,1,VCC*%
%TO.N,+3.3VA*%
X24292446Y37514971D03*
%TO.P,U17,2,OUTPUT*%
%TO.N,/AM3:00*%
X25242446Y35614971D03*
%TO.P,U17,3,GND*%
%TO.N,GND*%
X26192446Y37514971D03*
%TD*%
%TO.P,U16,1,VCC*%
%TO.N,+3.3VA*%
X24292446Y52664971D03*
%TO.P,U16,2,OUTPUT*%
%TO.N,/AM2:02*%
X25242446Y50764971D03*
%TO.P,U16,3,GND*%
%TO.N,GND*%
X26192446Y52664971D03*
%TD*%
%TO.P,U15,1,VCC*%
%TO.N,+3.3VA*%
X24292446Y67814971D03*
%TO.P,U15,2,OUTPUT*%
%TO.N,/AM2:01*%
X25242446Y65914971D03*
%TO.P,U15,3,GND*%
%TO.N,GND*%
X26192446Y67814971D03*
%TD*%
%TO.P,U14,1,VCC*%
%TO.N,+3.3VA*%
X24292446Y82964971D03*
%TO.P,U14,2,OUTPUT*%
%TO.N,/AM2:00*%
X25242446Y81064971D03*
%TO.P,U14,3,GND*%
%TO.N,GND*%
X26192446Y82964971D03*
%TD*%
%TO.P,U13,1,VCC*%
%TO.N,+3.3VA*%
X24292446Y98114971D03*
%TO.P,U13,2,OUTPUT*%
%TO.N,/AM1:02*%
X25242446Y96214971D03*
%TO.P,U13,3,GND*%
%TO.N,GND*%
X26192446Y98114971D03*
%TD*%
%TO.P,U12,1,VCC*%
%TO.N,+3.3VA*%
X24292446Y113264971D03*
%TO.P,U12,2,OUTPUT*%
%TO.N,/AM1:01*%
X25242446Y111364971D03*
%TO.P,U12,3,GND*%
%TO.N,GND*%
X26192446Y113264971D03*
%TD*%
%TO.P,U11,1,VCC*%
%TO.N,+3.3VA*%
X24292446Y128414971D03*
%TO.P,U11,2,OUTPUT*%
%TO.N,/AM1:00*%
X25242446Y126514971D03*
%TO.P,U11,3,GND*%
%TO.N,GND*%
X26192446Y128414971D03*
%TD*%
%TO.P,U10,1,VCC*%
%TO.N,+3.3VA*%
X24292446Y143564971D03*
%TO.P,U10,2,OUTPUT*%
%TO.N,/AM0:02*%
X25242446Y141664971D03*
%TO.P,U10,3,GND*%
%TO.N,GND*%
X26192446Y143564971D03*
%TD*%
%TO.P,U9,1,VCC*%
%TO.N,+3.3VA*%
X24292446Y158714971D03*
%TO.P,U9,2,OUTPUT*%
%TO.N,/AM0:00*%
X25242446Y156814971D03*
%TO.P,U9,3,GND*%
%TO.N,GND*%
X26192446Y158714971D03*
%TD*%
D11*
%TO.P,J1,S1,SHIELD*%
%TO.N,GNDPWR*%
X150942446Y88344971D03*
D12*
X150942446Y84164971D03*
D11*
X159582446Y88344971D03*
D12*
X159582446Y84164971D03*
%TD*%
D13*
%TO.P,H1,1,1*%
%TO.N,GNDPWR*%
X161012446Y102494971D03*
D14*
X161012446Y102494971D03*
%TD*%
M02*
